<svg width="77" height="64" viewBox="0 0 77 64" fill="none" xmlns="http://www.w3.org/2000/svg">
<g clip-path="url(#clip0_1210_4436)">
<path d="M39.3304 62.0521C56.4662 62.0521 70.3576 48.2732 70.3576 31.2761C70.3576 14.279 56.4662 0.500122 39.3304 0.500122C22.1946 0.500122 8.30322 14.279 8.30322 31.2761C8.30322 48.2732 22.1946 62.0521 39.3304 62.0521Z" fill="white"/>
<path d="M39.3363 62.4325C33.1388 62.4204 27.0841 60.5828 21.937 57.1519C16.7899 53.721 12.7816 48.8509 10.4184 43.1567C8.05516 37.4626 7.44318 31.2 8.65972 25.1603C9.87625 19.1206 12.8667 13.5748 17.2533 9.22361C21.6399 4.87244 27.2257 1.91116 33.305 0.713951C39.3842 -0.483261 45.6841 0.137322 51.4087 2.49727C57.1332 4.85722 62.0255 8.85063 65.4673 13.9729C68.9092 19.0952 70.7462 25.1166 70.7462 31.2761C70.7282 39.5444 67.4112 47.4681 61.5228 53.309C55.6345 59.1498 47.6555 62.4309 39.3363 62.4325ZM39.3363 0.886645C33.2915 0.898775 27.3859 2.69141 22.3657 6.03801C17.3456 9.38461 13.4361 14.135 11.1313 19.689C8.82651 25.243 8.22979 31.3514 9.41656 37.2423C10.6033 43.1333 13.5203 48.5424 17.799 52.7863C22.0776 57.0302 27.5259 59.9185 33.4555 61.0861C39.3851 62.2537 45.5298 61.6483 51.1133 59.3464C56.6969 57.0445 61.4686 53.1494 64.8257 48.1532C68.1828 43.157 69.9745 37.284 69.9745 31.2761C69.9566 23.2112 66.7209 15.4826 60.9772 9.78558C55.2335 4.08855 47.4509 0.88825 39.3363 0.886645Z" fill="black"/>
<path d="M59.0172 35.0066C59.5378 33.4367 59.568 31.7468 59.1036 30.1595C58.7394 29.2147 56.2516 25.7112 56.4121 25.0977C56.5726 24.4841 57.9924 18.2074 57.9369 16.8944C57.8813 15.5814 57.0788 13.7285 57.2455 12.6302C57.4121 11.5319 58.3814 6.96094 58.19 6.29216C57.9986 5.62339 57.8813 3.45754 57.301 2.92374C56.7207 2.38995 54.9613 0.696542 53.3007 1.15057C51.6401 1.60461 51.9672 1.76411 51.6154 2.15066C50.9426 2.91217 50.2008 3.6105 49.3991 4.23676C48.7818 4.61103 47.4978 5.77065 47.2385 5.96086C46.9792 6.15106 45.7384 7.46406 45.7384 7.46406C44.7548 7.3845 43.767 7.36811 42.7813 7.41498C41.9941 7.45333 41.2359 7.72232 40.6021 8.18807C39.7996 8.80163 37.997 10.5502 37.997 10.5502C37.6967 10.6231 37.408 10.7367 37.1389 10.8877C36.9722 11.0472 36.4475 11.6485 36.4475 11.6485L35.5585 12.1394C35.5585 12.1394 33.7868 12.9677 33.3732 13.5015C32.9596 14.0352 30.1877 16.7349 30.1877 16.7349L29.2741 17.962C29.2741 17.962 26.1874 18.6247 25.78 18.9192C25.106 19.5403 24.4691 20.2 23.8724 20.8948C23.7304 21.0605 23.0699 22.2324 23.0699 22.2324L23.6872 22.3428C23.6994 22.853 23.7997 23.3573 23.9835 23.8338C24.4867 24.4333 25.068 24.9636 25.7121 25.4106L25.0947 25.4904C25.1134 26.2106 25.0387 26.9303 24.8725 27.6317C24.6256 28.4047 23.4897 31.0247 23.4897 31.0247C23.0198 31.8521 22.4917 32.6456 21.9093 33.3991C21.4401 33.8838 19.2548 37.0068 18.9214 37.2768C18.588 37.5467 17.4213 39.277 17.3966 39.9458C17.3719 40.6145 17.6991 40.9336 17.3966 41.2526C16.2832 42.8423 15.4483 44.6076 14.9272 46.474C15.0629 46.5085 15.1936 46.5601 15.3162 46.6274L15.6804 46.6765C15.7155 46.6873 15.7466 46.708 15.7702 46.736C15.7938 46.7641 15.8087 46.7982 15.8133 46.8344C15.8178 46.8707 15.8118 46.9074 15.7959 46.9404C15.78 46.9733 15.7549 47.0009 15.7236 47.0201C15.7236 47.0201 15.7606 47.0814 15.7792 47.1121H16.1187C16.2915 47.1121 16.4088 47.3821 16.2175 47.468L15.9397 47.5723C15.9367 47.5967 15.9367 47.6214 15.9397 47.6459C15.9862 47.971 16.0048 48.2994 15.9952 48.6276H16.1064C16.3224 48.6276 16.3718 48.9712 16.1619 48.9957H15.9767C15.9767 49.1123 15.9767 49.2289 15.9767 49.3516H16.4212C16.4646 49.3553 16.5054 49.3736 16.537 49.4035C16.5685 49.4334 16.5888 49.473 16.5945 49.5159C16.6003 49.5589 16.5911 49.6024 16.5686 49.6395C16.5461 49.6765 16.5115 49.7048 16.4706 49.7197L15.9335 49.8302V49.9836C16.2916 49.9362 16.6526 49.9137 17.0138 49.916C17.2237 49.916 17.2793 50.2535 17.0632 50.2903L16.7113 50.3394C16.7232 50.3873 16.7164 50.438 16.6924 50.4812C16.6684 50.5244 16.6288 50.557 16.5817 50.5726C16.3512 50.6339 16.129 50.7014 15.915 50.775C15.915 50.9775 15.915 51.1738 15.915 51.3886C16.0818 51.7754 16.1558 52.1955 16.1311 52.6157C16.1428 52.5702 16.1711 52.5306 16.2105 52.5046C16.2499 52.4785 16.2976 52.468 16.3444 52.4748C16.3911 52.4817 16.4337 52.5055 16.4639 52.5417C16.494 52.5779 16.5096 52.624 16.5076 52.6709C16.5293 53.1903 16.5912 53.7072 16.6928 54.2171C16.7084 54.2626 16.7061 54.3124 16.6862 54.3563C16.6664 54.4002 16.6305 54.435 16.5859 54.4537C16.5413 54.4724 16.4912 54.4735 16.4457 54.4569C16.4003 54.4404 16.3628 54.4073 16.3409 54.3643C16.2113 54.1925 16.0878 54.0085 15.9644 53.8305C15.9644 53.9533 15.9644 54.0698 15.9644 54.1925C16.1928 54.5729 16.4953 55.0147 16.8039 55.4197C19.477 54.8061 22.1686 54.1925 24.7799 53.3765C28.9716 52.0267 33.1262 50.5664 37.3118 49.1982C44.8741 46.744 53.3624 45.3389 60.1531 41.0502C59.4061 39.9335 58.19 37.4977 59.0172 35.0066Z" fill="white"/>
<path d="M28.0516 47.2961C28.8936 47.3453 29.7383 47.3227 30.5765 47.2286C30.3655 47.6323 30.2877 48.0916 30.3542 48.5417C30.3747 49.105 30.5931 49.6434 30.9715 50.0633C31.0941 50.477 31.1299 50.9114 31.0765 51.3395C33.1507 50.6339 35.2311 49.9283 37.3177 49.2472C44.9356 46.7562 53.5166 45.3696 60.3134 41.0072C59.7393 39.8905 58.8565 38.418 59.1158 36.608C59.2948 35.3134 59.4306 33.6322 59.7331 32.3131C59.9174 31.618 59.883 30.8835 59.6343 30.2086L59.6035 30.2822C59.2716 29.5986 58.857 28.9578 58.3688 28.374C58.0319 27.5668 57.7614 26.7337 57.5601 25.883C57.0354 23.6497 57.5601 22.3919 57.949 21.1893C58.404 19.9877 58.5276 18.6871 58.3071 17.4221C58.1922 16.3756 57.9087 15.3542 57.4675 14.3972C57.639 15.8123 57.5384 17.2469 57.1712 18.6246C56.5962 20.3366 55.7749 21.9569 54.7327 23.4349C54.7327 23.4349 55.6464 26.1836 55.0105 28.3434C54.7601 29.3435 54.2651 30.2667 53.5694 31.0309C52.8737 31.7951 51.9988 32.3768 51.0225 32.7242C49.2446 33.3807 45.6394 33.3377 44.7998 33.2886C46.3726 33.0997 47.9259 32.7754 49.4422 32.3192C50.3827 32.055 51.2659 31.6203 52.0473 31.0369L53.319 30.8773C53.319 30.8773 52.1893 30.7669 51.714 30.6871C51.2386 30.6074 49.7755 30.1533 48.9483 29.9141C48.0375 29.6227 47.1835 29.1786 46.4234 28.6011C46.1285 28.3496 45.889 28.0405 45.7196 27.693C45.7224 27.9228 45.7713 28.1497 45.8635 28.3605C45.9557 28.5712 46.0894 28.7615 46.2567 28.9201C46.7034 29.3347 47.2497 29.6284 47.8433 29.773C47.5435 29.9281 47.2036 29.9901 46.8679 29.9509C46.628 29.8981 46.3957 29.8157 46.1765 29.7055L46.7938 30.1718C46.5878 30.2765 46.3583 30.3272 46.1271 30.319C45.8455 30.273 45.5727 30.184 45.3184 30.0552L45.4542 30.1902C45.5962 30.319 46.1456 30.7731 46.1456 30.7731C46.1456 30.7731 45.9851 31.1289 45.2381 30.8221C44.0405 30.3374 44.0035 29.3312 44.1516 29.1471C44.2998 28.963 44.5158 29.0919 44.5344 28.9324C44.5529 28.7729 44.238 28.4231 44.2627 28.1286C44.2874 27.8341 44.5714 28.1286 44.5714 28.1286C44.466 27.8751 44.4529 27.593 44.5344 27.331C44.701 27.0365 44.6825 27.2512 44.7936 27.3862C44.9048 27.5212 44.7628 25.1406 45.2073 25.7296C45.495 26.2981 45.6026 26.9398 45.5159 27.5703C45.6105 26.7758 45.5708 25.9712 45.3986 25.1897C45.3119 25.0014 45.1629 24.8482 44.9765 24.7556C44.7901 24.663 44.5775 24.6364 44.3739 24.6804C44.4643 24.4846 44.5307 24.2785 44.5714 24.0669C44.757 23.1092 44.8213 22.1322 44.7628 21.1586C44.7529 20.5104 44.6763 19.8648 44.5344 19.2321C44.2561 18.3082 44.2116 17.3303 44.4047 16.3851C44.6825 14.8451 46.1765 11.9675 46.1765 11.9675C46.1765 11.9675 45.1517 13.7284 44.5344 15.0353C44.1055 16.0955 43.8956 17.2306 43.917 18.3731C43.917 18.459 44.3306 20.0051 44.0528 19.9254C43.775 19.8456 43.1083 18.508 43.1083 18.508L43.1948 19.6861C42.9284 19.7024 42.6622 19.652 42.4206 19.5394C42.179 19.4269 41.9697 19.2558 41.8119 19.0418C41.2255 18.2933 40.5341 17.2012 40.5341 17.2012L40.7007 18.2688C40.8138 18.9337 41.08 19.5637 41.4786 20.1094C41.4786 20.1094 41.7811 20.8825 40.923 20.858C40.3629 20.807 39.8458 20.5379 39.4846 20.1094C39.4683 20.4653 39.5539 20.8185 39.7315 21.1279C40.0285 21.615 40.3629 22.0786 40.7316 22.5146C40.7316 22.5146 39.1512 23.0484 38.2623 22.5146C37.6804 22.0901 37.2848 21.4597 37.1572 20.7537C36.9727 21.1744 36.9232 21.6415 37.0152 22.0912C37.2434 22.8514 37.5891 23.5718 38.04 24.2264C37.5998 24.111 37.1989 23.88 36.8794 23.5576C36.4103 23.0484 35.7682 22.3305 35.7682 22.3305C35.7087 22.6654 35.7087 23.008 35.7682 23.3429C35.942 24.6598 36.5627 25.8783 37.5276 26.7972C38.8549 28.1593 40.4908 28.5826 40.5155 28.7483C40.5402 28.914 40.7501 29.5582 39.8118 30.8405C39.5357 31.2141 39.3484 31.6451 39.2639 32.101C39.1794 32.5569 39.2 33.0259 39.3241 33.4727C39.3536 33.1534 39.4665 32.8473 39.6517 32.5847C39.8368 32.3221 40.0878 32.1122 40.3797 31.9756C40.7254 31.8161 40.96 31.9756 41.5403 32.8223C41.9176 33.427 42.189 34.0908 42.3428 34.7857C42.4902 34.3143 42.7155 33.8706 43.0095 33.4727C43.5898 32.5953 43.9232 32.8591 44.0343 32.9144C45.3402 33.9117 46.496 35.0893 47.4667 36.4116C48.6581 38.1787 48.189 39.2708 48.189 39.2708C48.5024 39.1041 48.7929 38.8979 49.0532 38.6572C50.1768 37.7737 50.7386 38.0437 50.7386 38.0437L51.609 38.1603C52.8984 36.8447 54.0542 35.4061 55.0599 33.8654C55.255 33.5731 55.3893 33.2451 55.455 32.9006C55.5208 32.5561 55.5165 32.2019 55.4426 31.859C56.2532 31.8192 57.0462 31.6102 57.77 31.2455C58.2086 30.9619 58.5424 30.5441 58.7207 30.0552C58.8048 30.4131 58.7589 30.7891 58.5911 31.1166C58.1881 31.6215 57.6695 32.0233 57.0786 32.2885C57.8163 32.0662 58.4755 31.6408 58.98 31.0614C58.9566 31.3778 58.8548 31.6834 58.6837 31.9511C58.3549 32.367 57.9424 32.7101 57.4725 32.9584C57.0027 33.2067 56.4858 33.3547 55.955 33.3929C55.955 33.3929 55.9118 34.0433 54.245 36.3441C53.2758 37.6817 51.2633 39.915 51.2633 39.915L50.6768 37.8412C50.3552 38.2971 49.9755 38.7095 49.5471 39.0683C48.6335 39.9212 47.3124 40.9704 47.3124 40.9704V40.7434C47.3607 40.1895 47.2539 39.6331 47.0037 39.1358C46.8099 38.7445 46.544 38.3928 46.2197 38.0989C46.0592 38.5345 45.8695 38.9588 45.6517 39.369C45.412 39.7981 45.1396 40.2083 44.8369 40.5961C44.8044 40.0402 44.6964 39.4912 44.5158 38.964C43.9294 37.5038 43.3553 37.2154 43.3553 37.2154L43.1886 38.1357C42.9876 38.9314 42.6999 39.703 42.3305 40.4366C42.285 40.1968 42.2147 39.9624 42.1206 39.7371C41.9463 39.2219 41.71 38.7296 41.4168 38.2707C41.0881 38.7844 40.7075 39.2634 40.2809 39.7003C39.9827 40.0701 39.6024 40.3662 39.1697 40.5654C39.328 39.821 39.328 39.0519 39.1697 38.3075C39.037 37.499 38.8048 36.7098 38.4783 35.9576C38.4781 36.2548 38.4344 36.5503 38.3487 36.835C38.1625 37.5343 37.8645 38.1993 37.4659 38.8045C37.3202 39.082 37.1258 39.3313 36.8918 39.5408C36.1685 38.7276 35.5043 37.8644 34.904 36.9577C34.1627 35.7721 33.681 34.4446 33.4903 33.0616C33.4701 32.0227 33.6159 30.9872 33.9224 29.9938C33.65 30.1258 33.4018 30.3021 33.1878 30.5154C32.8179 30.8391 32.4884 31.2058 32.2062 31.6075C32.2298 31.1068 32.2009 30.6051 32.1198 30.1104C32.1053 29.5808 31.9725 29.061 31.7309 28.5888C31.1658 29.0158 30.6257 29.4747 30.1135 29.9632C29.4961 30.5767 29.3912 30.4172 29.2554 30.2454C29.1195 30.0736 29.0455 29.7239 29.0331 28.5765C29.0208 27.4292 29.0331 26.8279 29.0331 26.8279C28.9067 27.0172 28.8089 27.2239 28.743 27.4414C28.6539 27.8859 28.6084 28.338 28.6072 28.7913L28.3294 29.0858C28.0148 29.4772 27.7242 29.887 27.4589 30.3129C27.536 30.2485 27.6186 30.191 27.7059 30.1411C27.8119 30.0687 27.9326 30.0201 28.0595 29.9989C28.1864 29.9777 28.3164 29.9844 28.4405 30.0184C28.4405 30.0184 28.5763 30.0184 28.0948 30.4601C27.5709 30.9355 27.1922 31.5479 27.0021 32.2272C27.2743 31.9363 27.5695 31.6675 27.8849 31.4234C28.0627 31.2658 28.2764 31.1533 28.5075 31.0956C28.7387 31.0379 28.9805 31.0367 29.2122 31.0921C28.864 31.3893 28.5786 31.7521 28.3726 32.1597C28.0524 32.7498 27.859 33.3996 27.8046 34.0679C27.8046 34.0679 27.8911 33.6077 29.1998 32.6812C29.7433 32.2205 30.3725 31.8702 31.0518 31.6504C30.846 32.7676 30.8065 33.9087 30.9345 35.0373C31.0554 36.0131 31.2285 36.9819 31.4531 37.9394C30.8996 37.4696 30.4445 36.8963 30.1135 36.2521C29.8815 35.8566 29.6753 35.4467 29.4961 35.025C29.4961 35.025 28.7985 35.6386 28.9837 37.3995C29.1689 39.1604 30.2184 40.0868 30.6691 40.1789C31.1197 40.2709 32.2926 39.5224 32.2926 39.5224C31.6458 40.6863 31.2604 41.9757 31.1629 43.3019C31.1466 44.531 31.3688 45.7518 31.8173 46.8973C31.1266 46.4665 30.5371 45.8931 30.0888 45.2162C29.6527 44.5112 29.4378 43.6931 29.4714 42.8663C28.7924 43.5473 29.0269 45.3757 29.0269 45.3757C28.7042 45.2225 28.4234 44.9941 28.2085 44.71C27.9935 44.4258 27.8507 44.0943 27.7923 43.7436C27.6307 43.0431 27.507 42.3344 27.4219 41.6207C27.0505 42.1286 26.7726 42.6977 26.6008 43.3019C26.286 44.6333 26.7552 45.1425 26.7552 45.1425C26.7552 45.1425 25.7983 45.2653 25.1871 44.0259C24.8464 43.3772 24.6367 42.6685 24.5698 41.9398C24.429 42.2101 24.3371 42.5029 24.2982 42.8049C24.192 43.2828 24.1861 43.7773 24.2806 44.2576C24.3751 44.7379 24.5681 45.1937 24.8476 45.5966C25.6824 46.5186 26.8163 47.1201 28.0516 47.2961Z" fill="black"/>
<path d="M16.3409 54.4072C16.2113 54.2354 16.0878 54.0513 15.9644 53.8734C15.9644 54.2231 15.9644 54.5729 15.9644 54.9287C16.1146 55.141 16.2753 55.3458 16.4459 55.5423L17.0015 55.4073C16.8286 55.1312 16.6496 54.7937 16.4768 54.4624C16.4515 54.4629 16.4265 54.4582 16.4031 54.4488C16.3798 54.4393 16.3586 54.4251 16.3409 54.4072Z" fill="black"/>
<path d="M58.27 6.05289L58.1219 5.57431C58.0579 5.30389 58.0146 5.02905 57.9922 4.75215C57.9812 4.1423 57.7948 3.54831 57.4551 3.04032C56.9153 2.38593 56.242 1.85269 55.4797 1.47576C55.0932 1.24499 54.6643 1.09303 54.2181 1.02877C53.7718 0.964512 53.3172 0.989228 52.8807 1.10148C52.1399 1.261 51.5102 2.09545 51.0287 2.64765C50.2805 3.34629 49.4909 3.99985 48.6643 4.60488L47.2259 5.96698C46.658 6.43942 46.1579 6.89959 45.806 7.25545C45.5962 7.25545 44.3492 7.25545 43.7195 7.25545C42.7427 7.2899 41.776 7.46346 40.8489 7.77084C39.9171 8.55066 39.0424 9.39541 38.2314 10.2987C37.8786 10.2857 37.5276 10.355 37.2066 10.5012C36.7139 10.9073 36.2594 11.3571 35.8485 11.8449C35.3786 11.904 34.9286 12.0699 34.5336 12.3296C33.5794 13.0973 32.6685 13.9166 31.8049 14.7838C31.058 15.4894 29.0393 17.8025 28.7615 17.8516C28.2674 17.8524 27.7748 17.9059 27.2922 18.0111C26.0643 18.3756 24.9673 19.0826 24.1315 20.0481C23.5441 20.7293 23.1217 21.5353 22.8968 22.4042L23.5141 22.3612C23.5902 22.8649 23.7399 23.3548 23.9586 23.8154C24.2271 24.2764 24.5261 24.7191 24.8538 25.1406C24.931 25.8667 24.931 26.5988 24.8538 27.3249C24.7056 28.4477 22.9339 31.7057 22.7672 31.9941C22.6005 32.2824 18.4458 37.2461 17.8964 38.2462C17.347 39.2463 17.2791 39.2402 17.2112 40.0255C17.2112 40.3752 17.2112 40.6391 17.2112 40.7679C16.4922 41.6498 15.8713 42.6064 15.3592 43.621C14.9647 44.5093 14.6667 45.4369 14.4702 46.3881C14.7614 46.3898 15.0484 46.457 15.3098 46.5844C15.858 44.7267 16.6575 42.9516 17.6865 41.3078C18.6705 39.6659 19.9222 38.1979 21.3905 36.9639C21.3905 36.9639 22.2671 36.4055 21.3164 36.9639C19.9508 37.8242 18.7352 38.8997 17.7174 40.1482C17.8676 39.4347 18.1731 38.7624 18.6125 38.1787C20.2399 36.2052 22.0803 34.4152 24.1006 32.8408L24.6562 32.2947C24.0962 32.5983 23.5597 32.9428 23.0511 33.3255C22.6134 33.6673 22.1513 33.9769 21.6683 34.2519C21.6683 34.2519 22.903 32.6322 23.7179 31.7241C24.2187 31.1738 24.6749 30.585 25.0822 29.9632C25.0822 29.9632 23.7919 31.2271 23.5512 31.5093C23.7861 30.893 24.1105 30.3142 24.5142 29.7914C25.0266 29.141 26.0637 28.1103 26.0637 28.1103C25.7803 28.253 25.5133 28.4258 25.2674 28.6256C24.7859 28.9999 24.508 29.2392 24.508 29.2392C24.9022 28.5667 25.225 27.8552 25.4711 27.1163C25.5321 26.6762 25.509 26.2287 25.4032 25.7971C25.5938 25.8495 25.7967 25.8343 25.9773 25.7542C26.1748 25.6192 26.4527 24.8768 26.7551 24.797C27.0576 24.7173 27.7058 25.1959 27.7058 25.1959C27.762 24.1815 27.9045 23.1737 28.1318 22.1833C28.6627 19.9745 31.0271 17.9988 31.0271 17.9988C29.0146 19.2259 28.5022 20.5451 28.5022 20.5451C28.5023 20.2829 28.5703 20.0251 28.6997 19.7966C29.1263 19.1037 29.6385 18.4668 30.2246 17.9007C31.413 16.7199 32.6973 15.6385 34.0644 14.6672C33.0906 15.2086 32.1725 15.8436 31.3234 16.5631C30.727 17.0554 30.166 17.5885 29.6443 18.1584C29.7815 17.7052 30.0152 17.2867 30.3295 16.9313C31.7285 15.4669 33.2017 14.0743 34.7434 12.7591C35.7559 11.986 35.9781 12.1455 35.9781 12.1455L36.3609 13.2008C36.3928 12.8316 36.4484 12.4647 36.5275 12.1025C36.639 11.763 36.855 11.4669 37.1449 11.2559C37.5708 10.8386 37.6634 10.9797 37.6634 10.9797L37.7128 12.0719C37.8244 11.8839 37.8959 11.675 37.9227 11.4583C38.0338 10.9245 38.324 10.7589 39.0833 9.91828C39.8426 9.07771 40.8983 8.03467 42.1329 7.71562C43.2393 7.54124 44.3664 7.54124 45.4727 7.71562C45.1332 8.19419 45.0282 8.20032 44.8554 8.28622L44.9109 8.19419C44.7487 8.29971 44.5535 8.34331 44.3615 8.31691C44.0837 8.23101 43.8491 8.16352 43.9355 8.31691C43.9824 8.40479 44.0027 8.50427 43.9939 8.60334C43.9851 8.70241 43.9477 8.79684 43.8861 8.87525C43.2028 8.87837 42.524 8.98597 41.8736 9.19429C41.0649 9.51948 40.818 11.2006 40.818 11.2006C41.2822 10.7912 41.7822 10.4237 42.312 10.1024C42.4915 9.98341 42.6942 9.90335 42.9069 9.86741C43.1197 9.83147 43.3376 9.84045 43.5466 9.89376C43.5466 9.89376 43.7318 10.0103 43.4602 10.4582C43.1886 10.9061 42.5774 11.7344 42.5774 11.7344C42.952 11.584 43.271 11.3226 43.491 10.9859C43.8086 10.5537 44.0623 10.0784 44.2442 9.57469C44.5104 9.29071 44.752 8.98489 44.9665 8.6605C45.653 7.71395 46.4626 6.86189 47.3741 6.12651C48.2698 5.29961 49.2701 4.59216 50.3496 4.02201C50.5657 3.96066 50.8867 4.07724 50.8682 4.21836C50.8497 4.35947 49.9051 4.77669 49.6335 4.9853C49.0896 5.3094 48.6289 5.75469 48.2877 6.28604C48.8262 5.75972 49.4399 5.31522 50.1089 4.9669C50.967 4.59263 51.5287 4.39628 51.6646 4.5558C51.7451 4.77317 51.7519 5.01076 51.6839 5.23231C51.6159 5.45387 51.4769 5.64723 51.288 5.78292C50.9608 6.06515 50.115 6.93028 49.5224 7.55611C48.7809 8.30328 48.0783 9.0876 47.4173 9.90602C47.1706 10.2149 46.9497 10.5432 46.7567 10.8877C46.6456 11.0656 50.9176 6.35967 53.3437 6.11424C53.6862 6.04861 54.0405 6.08489 54.3623 6.21854C54.3623 6.21854 54.8253 5.15095 54.8623 5.04664C54.8994 4.94234 55.35 4.97916 55.3562 5.23072C55.3624 5.48228 55.2574 6.58668 55.2574 6.58668C55.9059 7.11936 56.4339 7.78215 56.8069 8.53166C57.3625 9.70969 57.2514 11.4461 57.0847 12.9431C56.9181 14.4402 56.8995 16.152 56.6403 17.4589C56.1956 19.4633 55.3904 21.3713 54.2635 23.0913C54.2635 23.0913 56.2575 20.3181 56.7823 18.367C57.1635 16.5088 57.3947 14.6232 57.4737 12.7284C57.5384 11.5913 57.7141 10.4632 57.9984 9.35995C58.3897 8.30262 58.4836 7.15929 58.27 6.05289ZM28.0824 20.0481C27.8272 19.9311 27.551 19.866 27.27 19.8565C26.9891 19.847 26.7091 19.8934 26.4465 19.9929C25.9184 20.3329 25.4511 20.758 25.0637 21.2507L25.3106 21.4348C25.5575 21.625 25.2736 21.7845 25.2736 21.7845L24.5883 22.263H25.397L25.5081 22.4778C25.5081 22.4778 25.9217 22.9318 25.9217 23.1466C25.8541 23.4035 25.7412 23.6466 25.5884 23.8644L26.1131 23.7049C26.1131 23.7049 26.1687 23.8399 26.3909 23.8154C26.6555 23.7536 26.9154 23.6737 27.1688 23.5761C26.937 24.1348 26.5271 24.6026 26.002 24.9075C25.8584 24.9958 25.6991 25.0562 25.5328 25.0854L25.2118 24.8829C24.6676 24.4538 24.2514 23.8853 24.008 23.2386C23.8663 22.8648 23.8053 22.4655 23.829 22.0667H23.329L23.5635 21.582C23.8043 21.1034 25.3229 19.3118 26.3662 18.9376C27.1198 18.6909 27.9142 18.5909 28.7059 18.6431C28.9158 18.6345 29.1235 18.5973 29.3233 18.5326C28.5825 19.3425 28.0824 20.0481 28.0824 20.0481ZM56.7205 5.0896C56.3625 4.85031 55.9982 4.56808 55.9612 4.27357C55.9612 4.20608 55.8809 3.86249 56.2266 3.90544C56.3479 3.93274 56.4603 3.98967 56.5538 4.07109C56.702 4.18767 56.8316 4.48832 56.9613 4.50673C57.1259 4.51807 57.2889 4.46772 57.4181 4.3656C57.5477 4.2613 57.4737 3.86249 57.4181 3.75205C56.9189 2.93653 56.1374 2.33005 55.2204 2.04636C54.8808 1.97273 54.8129 2.93601 54.7574 3.15075C54.7018 3.3655 54.424 4.0527 53.1708 4.08337C51.9177 4.11405 51.7633 3.70295 51.893 3.68455C52.0226 3.66614 53.2017 3.68455 53.6091 3.57411C53.814 3.52222 54.0035 3.4229 54.1623 3.28428C54.3211 3.14565 54.4446 2.97165 54.5228 2.77649C54.5969 2.46972 54.6833 1.88683 54.4426 1.7948C53.9261 1.68126 53.391 1.68126 52.8745 1.7948C52.6708 1.93592 51.5843 3.10781 51.3188 3.27347C51.0191 3.45715 50.7054 3.61717 50.3805 3.75205C50.2323 3.82567 48.9421 4.7092 48.5285 4.97916C48.5285 4.97916 49.9854 3.88703 50.5287 3.39005C51.0719 2.89307 51.5905 2.22428 52.1337 1.70889C52.677 1.19351 53.9857 1.04013 54.992 1.49416C55.9982 1.9482 57.3502 3.05873 57.628 3.86862C57.7242 4.05639 57.7598 4.26906 57.73 4.47767C57.7001 4.68628 57.6063 4.88068 57.4613 5.03438C57.5016 4.98147 57.5597 4.94475 57.625 4.93095C57.6903 4.91714 57.7585 4.92718 57.8169 4.95922C57.8754 4.99126 57.9203 5.04315 57.9434 5.1054C57.9665 5.16765 57.9663 5.23609 57.9428 5.2982C57.5205 5.3661 57.0876 5.28353 56.7205 5.06505V5.0896Z" fill="black"/>
<path d="M54.2019 20.4224C54.5723 19.4775 55.2637 17.4466 55.7205 15.882C55.8749 15.3728 55.9983 14.9065 56.0847 14.5506C56.1156 14.4034 56.1403 14.2745 56.165 14.1518C56.2885 13.6303 56.3996 13.1088 56.4428 12.7897C56.6106 11.5542 56.5689 10.2995 56.3193 9.07771C56.2382 8.64845 56.0647 8.24169 55.8108 7.88527C55.5568 7.52885 55.2283 7.23119 54.8478 7.01268C54.4673 6.79417 54.0438 6.65997 53.6063 6.61927C53.1687 6.57857 52.7275 6.63233 52.3128 6.77687C51.6955 6.96094 48.6582 8.9734 46.4173 12.4339C46.4173 12.4645 45.837 13.8819 45.5839 14.7102C45.1147 16.2625 44.9233 16.9803 45.0036 17.5448C45.0839 18.1093 45.3617 18.9621 45.4172 19.6002C45.4728 20.2383 45.6209 23.4472 45.4172 23.981C45.7025 23.9828 45.9775 24.0868 46.1918 24.2739C46.4061 24.461 46.5454 24.7186 46.584 24.9995C46.7037 25.9699 47.0643 26.8955 47.6335 27.693C48.0832 28.3447 48.6684 28.8929 49.3496 29.3005C49.5579 29.3511 49.7742 29.3603 49.986 29.3277C50.1979 29.2951 50.4012 29.2212 50.5843 29.1103C51.0621 29.4985 51.5894 29.8224 52.1523 30.0736C52.4661 30.2129 52.8224 30.2234 53.1439 30.1027C53.4653 29.982 53.7258 29.74 53.8685 29.4294C54.052 28.6546 54.052 27.8481 53.8685 27.0733C53.7883 26.6254 53.7018 26.2021 53.7018 26.2021C53.6873 26.5478 53.6121 26.8883 53.4796 27.2083C53.4087 27.3789 53.3037 27.5333 53.1709 27.6623C53.107 27.7326 53.023 27.7818 52.9302 27.8035C53.05 27.8574 53.1826 27.8765 53.3129 27.8587L53.4549 27.8035C53.4549 27.8035 53.6216 28.2268 52.8376 28.5091C52.6233 28.6249 52.3881 28.6976 52.1455 28.7228C51.9029 28.7481 51.6577 28.7255 51.4239 28.6563C51.1073 28.58 50.8159 28.4236 50.5781 28.2023C50.3313 28.4349 50.0101 28.5738 49.6706 28.5949C49.3942 28.5815 49.1232 28.5139 48.8731 28.396C48.6231 28.278 48.399 28.1121 48.2137 27.9078C47.903 27.5279 47.6512 27.1039 47.4668 26.65L47.4112 26.5211L47.6828 26.742C47.8359 26.8715 48.0037 26.9827 48.1829 27.0733C48.4051 27.1592 48.2384 27.239 48.6027 27.4292C48.8552 27.5387 49.1359 27.5666 49.4052 27.509C49.4052 27.509 49.3558 27.6439 49.6953 27.7728C49.9909 27.836 50.2989 27.8081 50.5781 27.693C50.6216 27.7738 50.6902 27.8383 50.7736 27.877C50.8571 27.9158 50.951 27.9265 51.0411 27.9078C51.2165 27.8926 51.3879 27.847 51.5473 27.7728C51.6008 27.7503 51.6524 27.7236 51.7017 27.693C51.7017 27.693 51.8684 27.963 52.035 27.963C52.2017 27.963 52.4487 27.7237 52.6153 27.7237C52.782 27.7237 52.6709 27.3924 52.6709 27.3924C52.6709 27.3924 52.4054 27.7421 52.1832 27.7114C52.0036 27.6667 51.8381 27.5782 51.7017 27.4537C51.6783 27.4969 51.6414 27.5313 51.5967 27.5519C51.6359 27.3492 51.6359 27.141 51.5967 26.9384C51.5288 26.7113 51.5103 26.6622 51.7572 26.6622C52.0042 26.6622 52.2881 26.6991 52.3128 26.9138C52.3059 27.1204 52.279 27.3259 52.2326 27.5274C52.2326 27.5274 52.3314 27.3249 52.461 27.0426C52.6995 26.6783 53.0028 26.3602 53.3561 26.1039C53.4672 25.9996 53.6771 26.1469 53.6771 26.1469L53.4858 25.0977C53.3685 24.4841 52.9363 23.2877 52.961 23.1527C52.9857 23.0177 53.7018 21.6802 54.2019 20.4224ZM55.1711 15.8575C54.9789 16.3999 54.7371 16.9236 54.4488 17.4221C54.2326 17.7892 53.9781 18.1326 53.6895 18.4467C53.6895 18.4467 54.4179 16.8944 54.6402 16.1766C54.712 15.9542 54.7515 15.7228 54.7575 15.4894C54.8748 15.4158 54.9859 15.336 55.0908 15.2562C55.1649 15.3237 55.2884 15.4955 55.1711 15.8575ZM55.6094 10.403C55.5836 10.4679 55.567 10.536 55.56 10.6055C55.359 10.4477 55.1055 10.371 54.8501 10.3907C54.8501 10.3907 54.9735 10.1637 55.0415 9.9919C55.1174 9.82638 55.1553 9.64615 55.1526 9.46425C55.3391 9.51489 55.5134 9.60256 55.6649 9.72195C55.7059 9.83244 55.7227 9.95032 55.7142 10.0678C55.7056 10.1852 55.672 10.2995 55.6156 10.403H55.6094ZM54.8995 10.9736C54.9905 11.1864 55.0266 11.4184 55.0044 11.6485C55.0044 11.6485 55.0044 12.532 54.955 13.1947C54.8995 13.5628 54.776 13.9309 54.4303 13.6364C54.4673 13.0536 54.5044 12.5075 54.5044 12.3541C54.5044 12.0105 54.4735 11.3111 54.5044 11.127V10.9368C54.4369 10.8755 54.3597 10.8257 54.2759 10.7895C54.313 10.7405 54.5352 10.7895 54.6031 10.7895C54.7177 10.8212 54.8206 10.8852 54.8995 10.9736ZM56.0971 12.6977C55.9921 13.2627 55.7828 13.8036 55.4798 14.2929C55.1643 14.7186 54.7705 15.0808 54.3192 15.3605C54.3192 15.2439 54.3562 14.5997 54.3932 13.9309C54.4315 13.9284 54.47 13.9337 54.5062 13.9464C54.5424 13.959 54.5756 13.9789 54.6039 14.0047C54.6322 14.0305 54.6549 14.0617 54.6707 14.0965C54.6865 14.1313 54.695 14.1689 54.6957 14.2071C54.7018 14.2928 54.7018 14.3789 54.6957 14.4647C54.5723 14.8758 54.4488 15.2378 54.4488 15.2378C54.8592 14.6974 55.1305 14.0655 55.239 13.3972C55.3236 12.7585 55.3607 12.1146 55.3501 11.4706C55.369 11.4276 55.3814 11.3821 55.3872 11.3356C55.3936 11.2929 55.3936 11.2495 55.3872 11.2068C55.5373 11.3455 55.6644 11.5071 55.7637 11.6853C55.9612 11.9839 56.0761 12.3288 56.0971 12.6854V12.6977ZM54.492 7.43952C54.943 7.68928 55.3277 8.04212 55.6143 8.46887C55.9009 8.89562 56.0812 9.38404 56.1403 9.89375C56.206 10.5896 56.206 11.2901 56.1403 11.986C56.0847 11.851 55.6217 11.3172 55.7329 10.8018C55.7839 10.6012 55.8108 10.3952 55.8131 10.1882C55.8274 10.0298 55.8149 9.87013 55.7761 9.71581C55.7705 9.61437 55.7363 9.51655 55.6773 9.43358C55.5415 9.18816 55.418 9.02863 55.2637 9.02863C55.1093 9.02863 54.9612 8.92432 54.9056 8.99794L54.7513 8.85069L54.5352 8.72185C54.5026 8.68859 54.4774 8.64887 54.4612 8.60528C54.4612 8.54392 54.3871 8.54392 54.3747 8.5071C54.3624 8.47029 54.313 8.5071 54.2389 8.53778C54.1648 8.56845 54.1525 8.53778 54.134 8.5071L53.9673 8.40279C53.925 8.34042 53.8878 8.27478 53.8562 8.20647C53.8562 8.16352 53.7142 8.26781 53.6463 8.26781C53.5822 8.2553 53.5199 8.23469 53.4611 8.20647H53.4055C53.3344 8.18259 53.2677 8.14735 53.208 8.10216C53.208 8.05921 53.208 8.01626 53.1462 7.98558C53.0845 7.9549 53.0104 7.98558 52.9796 7.94877C52.8994 7.94216 52.8189 7.94216 52.7388 7.94877C52.6338 7.94877 52.4425 7.89354 52.4116 7.83219C52.3807 7.77083 52.2943 7.75857 52.1215 7.80152C51.9486 7.84447 51.9363 7.83833 51.8807 7.80152C51.7267 7.80098 51.5732 7.81952 51.4239 7.85674C51.6842 7.66975 51.9564 7.49964 52.2388 7.34747C52.9752 7.09821 53.7787 7.13105 54.492 7.43952ZM46.3556 12.8388C46.5541 12.4002 46.8254 11.9978 47.1581 11.6485C47.3309 11.4366 47.5277 11.2451 47.7446 11.0779C47.7446 11.0779 47.6149 12.1209 47.6273 12.4523C47.4588 12.5878 47.3184 12.7545 47.2137 12.9431C46.8001 13.5567 46.5963 13.8266 46.4914 13.6917C46.404 13.5696 46.3462 13.4291 46.3227 13.2811C46.2991 13.1331 46.3104 12.9817 46.3556 12.8388ZM49.5101 27.3126C49.5101 27.3126 49.0965 27.4476 48.9299 27.3678C48.767 27.2779 48.6103 27.1775 48.4607 27.0672C48.2156 26.9361 47.9785 26.7906 47.7507 26.6316C47.794 26.5211 47.973 25.9014 48.1767 25.8769C48.757 25.8155 48.794 25.8769 48.9422 26.1285C48.9622 26.2297 48.9622 26.3339 48.9422 26.4352C48.9803 26.3996 49.0241 26.3706 49.0718 26.3493C49.3681 26.2082 49.3805 26.2021 49.6459 26.3493C49.6802 26.3689 49.71 26.3954 49.7334 26.4271C49.7568 26.4588 49.7733 26.495 49.7818 26.5334C49.7976 26.6057 49.7987 26.6804 49.7849 26.7532C49.7711 26.8259 49.7428 26.8951 49.7015 26.9568C49.6151 27.1101 49.541 27.2145 49.4916 27.3003L49.5101 27.3126ZM51.3128 27.6623C51.0645 27.6967 50.8121 27.64 50.6028 27.5028C50.3815 27.5319 50.1641 27.5855 49.9546 27.6623C49.7632 27.7482 49.5904 27.4599 49.5348 27.3556C49.7082 27.0941 49.8958 26.8422 50.0966 26.6009C50.1751 26.5615 50.2618 26.541 50.3497 26.541C50.4376 26.541 50.5243 26.5615 50.6028 26.6009C50.7016 26.6745 50.6028 26.8586 50.6028 27.1838V27.5028C50.6287 27.2427 50.6804 26.9858 50.7572 26.7359C50.8436 26.5947 51.3189 26.6745 51.3189 26.6745C51.3189 26.6745 51.5288 26.7972 51.5597 27.2881C51.5844 27.5151 51.2942 27.6623 51.2942 27.6623H51.3128ZM53.0598 25.0731C53.0475 25.3593 52.958 25.637 52.8005 25.8769C52.745 25.9567 52.3561 26.4291 51.0905 26.38C50.5473 26.38 50.4053 26.3309 50.4115 26.3064L49.9546 26.38C49.9546 26.38 50.0164 26.2941 49.72 26.1223C49.5019 26.0148 49.2592 25.9661 49.0163 25.9812C48.915 25.8671 48.791 25.7752 48.652 25.7112C48.4733 25.6983 48.2938 25.6983 48.115 25.7112L48.2384 25.3738C48.2455 25.019 48.1891 24.6659 48.0718 24.3307C48.1124 24.6033 48.1124 24.8803 48.0718 25.1529C48.0582 25.3493 48.0057 25.5411 47.9174 25.7174L47.6149 26.2512L47.4791 26.4291L47.4359 26.3861C47.2987 26.2273 47.1787 26.0545 47.0779 25.8708C47.0779 25.8708 47.1581 25.1284 47.4359 24.9197C47.6571 24.7311 47.8635 24.526 48.0532 24.3062C47.769 24.3919 47.4987 24.518 47.2507 24.6805C46.9729 24.8952 47.2507 24.3062 47.1396 23.7417C46.9584 22.9274 46.6186 22.1562 46.1395 21.4716C46.0564 21.3703 45.9801 21.2637 45.9111 21.1525C45.9117 20.7414 46.0708 20.3462 46.3556 20.0481C46.6476 19.8199 47.0181 19.7146 47.3874 19.7548C47.7567 19.7949 48.0955 19.9773 48.331 20.2629C48.7845 20.7314 49.141 21.2838 49.3805 21.8888C49.4736 22.2014 49.5194 22.526 49.5163 22.8521C49.6391 22.1315 49.5535 21.391 49.2694 20.7169C48.8002 19.9131 50.504 20.4469 50.7386 21.5145C50.8436 21.9685 51.7325 23.1711 51.1522 23.3552C50.8715 23.4334 50.5844 23.4868 50.2942 23.5147C51.0041 23.6083 51.7209 23.6391 52.4363 23.6067C53.0228 23.527 53.1462 24.0546 53.066 25.0731H53.0598ZM53.0166 9.88761C52.64 9.70354 52.8746 9.51948 52.7265 9.60538C52.6704 9.64445 52.6036 9.66541 52.5351 9.66541C52.4666 9.66541 52.3998 9.64445 52.3437 9.60538C52.2658 9.51498 52.224 9.39923 52.2264 9.28019C52.2264 9.28019 52.2264 9.60536 52.035 9.62991C51.8437 9.65445 51.5041 9.28019 51.5041 9.28019C51.5184 9.3906 51.5081 9.50275 51.4739 9.60877C51.4398 9.71478 51.3827 9.81207 51.3066 9.89375C51.0535 10.1085 50.9547 10.5073 50.6892 10.36C50.5022 10.2423 50.3641 10.0615 50.3003 9.8508C50.3003 9.8508 50.0781 10.4644 49.6336 11.9062C49.4701 12.6076 49.1702 13.2704 48.7508 13.8573C48.5065 13.5734 48.299 13.2601 48.1335 12.9247C47.973 12.5198 47.9174 12.3909 47.9174 12.3909C47.8797 12.3762 47.8378 12.3762 47.8001 12.3909C47.8149 11.7273 47.9379 11.0704 48.1643 10.4459C48.3103 10.2479 48.4803 10.0687 48.6706 9.91215C48.6706 10.1085 48.615 10.4582 48.5965 10.8816C48.6015 11.5643 48.6427 12.2463 48.7199 12.9247C48.7199 12.9247 48.757 11.759 48.8311 11.0841C48.9052 10.4091 49.2447 9.35994 49.5472 9.18814C49.6373 9.13981 49.738 9.11452 49.8404 9.11452C49.9428 9.11452 50.0436 9.13981 50.1336 9.18814C50.3373 8.8815 50.5688 8.59399 50.8251 8.32917C51.0342 8.21582 51.2588 8.13316 51.4918 8.08375C51.5232 8.1899 51.5232 8.30278 51.4918 8.40893C51.4682 8.63945 51.4682 8.87174 51.4918 9.10226C51.5756 8.76351 51.6334 8.41893 51.6646 8.07148H51.8128C51.9809 8.09372 52.1464 8.13277 52.3067 8.18806C52.3067 8.26782 52.3067 8.37826 52.3067 8.53165V8.95501C52.3067 8.95501 52.4301 8.48869 52.4733 8.231C52.6647 8.29235 52.8623 8.35985 53.0536 8.43348C53.0403 8.62328 53.0135 8.8119 52.9734 8.99794L52.9178 9.18202C52.9178 9.18202 53.0907 8.72186 53.1709 8.47643L53.6648 8.66049C53.6597 8.85894 53.6243 9.05548 53.5599 9.24338L53.5043 9.43358C53.6172 9.20255 53.7101 8.96239 53.7821 8.71571C53.966 8.78672 54.1436 8.87293 54.313 8.97341V9.01635C54.2887 9.20883 54.2367 9.39686 54.1587 9.57469C54.2824 9.41631 54.3726 9.23476 54.4241 9.0409C54.5908 9.1452 54.9056 9.28631 55.0044 9.35994C55.0057 9.61627 54.9328 9.86759 54.7945 10.084C54.6521 10.2656 54.4735 10.416 54.2698 10.5257C54.2631 10.3158 54.2214 10.1085 54.1463 9.91215C54.1463 9.91215 54.1463 10.1269 53.8129 10.1024C53.6424 10.0906 53.4831 10.0137 53.3685 9.88761C53.3139 9.91126 53.2551 9.92346 53.1956 9.92346C53.1361 9.92346 53.0773 9.91126 53.0228 9.88761H53.0166Z" fill="black"/>
<path d="M45.5347 27.558C45.5371 27.5845 45.5371 27.6112 45.5347 27.6377C45.5371 27.6112 45.5371 27.5845 45.5347 27.558Z" fill="black"/>
<path d="M48.825 26.5947C48.6686 26.726 48.5369 26.8839 48.436 27.061L48.5472 27.1408L48.825 26.5947Z" fill="black"/>
<path d="M56.3007 36.7613C55.3875 36.8599 54.5155 37.1918 53.7696 37.7246C53.6793 37.7893 53.5927 37.8589 53.5103 37.9332C52.5552 37.3957 51.4505 37.1804 50.3619 37.3197C44.4293 37.8719 27.0514 39.8475 26.8724 39.8659L26.3291 39.9334V40.0561C25.9517 40.0132 25.5706 40.0132 25.1932 40.0561L0.012207 42.8908L12.0194 48.4128L11.0316 60.96L24.6129 59.4323L24.8475 59.4016L38.3301 57.88L44.4232 63.1198L45.3924 51.0204L46.9728 50.8425L46.4419 56.978L54.3067 56.0945C54.7277 56.1754 55.1586 56.1919 55.5846 56.1436L64.431 55.1496C65.3474 55.0389 66.2149 54.6778 66.9373 54.1066C67.4439 53.7653 67.8667 53.3151 68.1744 52.7894C68.4822 52.2636 68.667 51.6758 68.7153 51.0695L69.4375 41.498L77.0122 34.4482L56.3007 36.7613Z" fill="white"/>
<path d="M27.1196 50.7627C27.0764 49.9651 26.5023 49.5356 25.3356 49.5356V49.4313C25.7833 49.3442 26.2054 49.1575 26.5702 48.8852C26.7964 48.7405 26.9874 48.5477 27.1294 48.3206C27.2714 48.0935 27.3609 47.8379 27.3913 47.5722L27.5703 45.5229C27.6456 44.8691 27.6827 44.2115 27.6814 43.5534C27.6663 43.3176 27.5799 43.0917 27.4333 42.9056C27.2868 42.7194 27.0871 42.5817 26.8604 42.5104C26.4243 42.3352 25.9504 42.2739 25.4837 42.3324L8.53174 44.2222L13.4025 46.3696L24.1317 45.2039L23.8786 48.3085L17.7053 49.0018L17.8288 47.5784L14.3408 47.971L13.5383 58.2236L24.3416 56.9965C24.8929 56.9326 25.4204 56.7368 25.8788 56.4258C26.1322 56.2846 26.3487 56.086 26.5107 55.8461C26.6726 55.6063 26.7755 55.332 26.811 55.0453L26.9962 52.8304C27.0742 52.1438 27.1154 51.4536 27.1196 50.7627ZM23.4156 54.4072L17.2423 55.1006L17.5016 51.7015L23.6749 51.0081L23.4156 54.4072Z" fill="black"/>
<path d="M13.4826 58.2603L14.2913 47.9096H14.3345L17.878 47.5108L17.7607 48.9343L23.8106 48.2532L24.0575 45.2468L13.39 46.431L8.35254 44.2099L25.4835 42.3017C25.9588 42.2422 26.4415 42.3056 26.8849 42.4858C27.1199 42.5613 27.3267 42.7052 27.4786 42.8988C27.6304 43.0924 27.7204 43.3268 27.7368 43.5718C27.7368 43.8724 27.7368 44.5412 27.6257 45.5474L27.4467 47.5967C27.416 47.8686 27.3247 48.1303 27.1795 48.3628C27.0343 48.5952 26.8387 48.7925 26.6071 48.9404C26.2424 49.2141 25.8204 49.4028 25.3724 49.4926C26.5145 49.4926 27.1133 49.9466 27.1627 50.7627C27.1627 51.0326 27.1627 51.7137 27.0392 52.8365L26.8478 55.0453C26.8166 55.3396 26.7145 55.6221 26.5501 55.8688C26.3857 56.1155 26.1638 56.3192 25.9033 56.4626C25.4371 56.7772 24.9013 56.9751 24.3415 57.0394L13.4826 58.2603ZM14.3839 47.9955L13.5875 58.1499L24.3353 56.9228C24.8804 56.861 25.4018 56.6671 25.8539 56.3583C26.1013 56.2216 26.3125 56.0285 26.4703 55.7949C26.628 55.5613 26.7278 55.2939 26.7614 55.0146L26.9466 52.8058C27.0244 52.1192 27.0656 51.429 27.0701 50.7381C27.0269 49.9712 26.4528 49.5785 25.3354 49.5662H25.286V49.376H25.3292C25.7769 49.2959 26.1997 49.1131 26.5639 48.8422C26.7828 48.7007 26.9676 48.513 27.1052 48.2924C27.2429 48.0718 27.3299 47.8238 27.3602 47.566L27.5393 45.5168C27.6144 44.865 27.6515 44.2094 27.6504 43.5534C27.6376 43.3263 27.5549 43.1087 27.4136 42.9298C27.2722 42.7509 27.0791 42.6195 26.8602 42.5533C26.4328 42.3782 25.9668 42.3169 25.5082 42.3754L8.7291 44.216L13.427 46.2898L24.1871 45.0934L23.9217 48.3023H23.8847L17.6804 49.0018L17.7977 47.5783L14.3839 47.9955ZM17.1681 55.1557L17.4335 51.6584H17.4767L23.6994 50.959L23.4402 54.4563H23.4031L17.1681 55.1557ZM17.5261 51.7444L17.273 55.0453L23.3476 54.3642L23.5945 51.0633L17.5261 51.7444Z" fill="white"/>
<path d="M31.2554 50.1798L35.0026 49.7565L37.5707 46.7746L31.4591 47.4618L31.6813 44.3388L39.5832 43.4491L39.7869 40.7311L28.4712 42.0073L27.3477 56.659L38.6696 55.3889L38.8733 52.6709L30.9961 53.5544L31.2554 50.1798Z" fill="black"/>
<path d="M27.2983 56.708V56.6528L28.4219 41.9275H28.4528L39.8302 40.6512L39.6203 43.4613H39.5648L31.6999 44.3449L31.49 47.3697L37.6634 46.6764L35.0026 49.7442L31.2986 50.1614L31.0456 53.4378L38.9474 52.6156L38.7313 55.4318H38.6943L27.2983 56.708ZM28.533 42.044L27.4218 56.6037L38.6449 55.3398L38.8425 52.7261L30.9221 53.6096L31.1875 50.1307H31.2308L34.9348 49.7073L37.4041 46.8359L31.3542 47.5169L31.5826 44.2958L39.4845 43.4061L39.682 40.7862L28.533 42.044Z" fill="white"/>
<path d="M52.9366 47.8729C52.8934 47.0691 52.2884 46.6458 51.1463 46.6458C50.5784 46.6458 49.8808 46.744 49.8808 46.744C50.4806 46.6118 51.0543 46.3817 51.5784 46.0629C51.806 45.9202 51.9996 45.7299 52.1456 45.5052C52.2917 45.2806 52.3867 45.027 52.4242 44.7622L52.6032 42.7129C52.6742 42.0588 52.7093 41.4013 52.7082 40.7434C52.6994 40.5071 52.6186 40.279 52.4763 40.0894C52.3341 39.8998 52.1372 39.7577 51.9118 39.6819C51.4758 39.5065 51.0018 39.4452 50.5351 39.504L40.4973 40.6329L39.312 55.5546L42.5345 58.3279L43.2691 48.8055L49.4918 48.1061L48.9609 54.2416L52.4056 53.8551L52.9242 48.0815C52.9366 47.9404 52.9366 47.8913 52.9366 47.8729ZM48.9116 45.48L43.5037 46.0936L43.7445 42.989L49.1523 42.3754L48.9116 45.48Z" fill="black"/>
<path d="M42.5529 58.4506L39.2378 55.5975L40.4292 40.639H40.4663L50.5041 39.5101C50.9814 39.4506 51.4661 39.514 51.9116 39.6941C52.1455 39.7707 52.351 39.915 52.5017 40.1085C52.6524 40.302 52.7414 40.5359 52.7574 40.7801C52.7585 41.4403 52.7214 42.0999 52.6463 42.7558L52.4672 44.8051C52.4327 45.0764 52.3378 45.3367 52.1894 45.567C52.0409 45.7973 51.8427 45.9918 51.6092 46.1365C51.2433 46.37 50.8464 46.5518 50.4301 46.6764C50.6523 46.6764 50.9116 46.6396 51.1462 46.6335C52.3191 46.6335 52.9364 47.0691 52.9982 47.8974C52.9982 47.8974 52.9982 47.9771 52.9982 48.0937L52.4734 53.9102H52.4364L48.9299 54.3029L49.467 48.1673L43.3431 48.8545L42.5529 58.4506ZM39.3366 55.5546L42.4726 58.2542L43.2319 48.7625H43.269L49.5534 48.0569L49.0225 54.1925L52.3685 53.8182L52.8809 48.0815C52.8862 48.0182 52.8862 47.9545 52.8809 47.8913C52.8377 47.1243 52.2635 46.7255 51.14 46.7132C50.5844 46.7132 49.9053 46.8175 49.9053 46.8175V46.7194C50.5002 46.5897 51.0695 46.3638 51.5906 46.0506C51.8137 45.9126 52.003 45.7271 52.1451 45.5074C52.2871 45.2878 52.3781 45.0395 52.4117 44.7805L52.529 42.7496C52.6005 42.0976 52.6376 41.4422 52.6401 40.7863C52.6243 40.5592 52.5397 40.3422 52.3976 40.1637C52.2555 39.9853 52.0625 39.8537 51.8438 39.7862C51.4163 39.6111 50.9503 39.5498 50.4918 39.6082L40.491 40.731L39.3366 55.5546ZM43.448 46.1426V46.0813L43.6888 42.9398H43.732L49.1954 42.3263L48.9485 45.5291H48.9114L43.448 46.1426ZM43.7875 43.0258L43.5591 46.0322L48.8682 45.4186L49.0966 42.4122L43.7875 43.0258Z" fill="white"/>
<path d="M63.0667 50.143L56.8501 50.8424L57.5415 41.6391L66.9188 40.5838L70.2092 37.516L56.6279 39.0437C56.0709 39.1133 55.5414 39.3246 55.0907 39.6573C54.8395 39.8032 54.6265 40.0059 54.4688 40.249C54.3111 40.492 54.2133 40.7686 54.1832 41.0562L53.7264 46.8237L53.3005 52.2598C53.295 52.3271 53.295 52.3948 53.3005 52.4622C53.314 52.6859 53.3915 52.9012 53.5238 53.0827C53.6561 53.2642 53.8377 53.4044 54.0474 53.4869C54.4421 53.6981 54.8919 53.7858 55.3376 53.7384L64.1779 52.7445C64.7058 52.6717 65.2046 52.4598 65.6224 52.1309C65.8567 51.9857 66.0554 51.7902 66.2039 51.5587C66.3524 51.3273 66.4469 51.0658 66.4805 50.7933L67.0114 43.6945L59.7454 44.5105L59.5417 47.2225L63.3692 46.793L63.0667 50.143Z" fill="black"/>
<path d="M55.0599 53.7937C54.6872 53.7907 54.3207 53.6981 53.9919 53.5238C53.7755 53.4373 53.5882 53.2917 53.4517 53.1039C53.3151 52.916 53.2349 52.6936 53.2202 52.4623C53.2202 52.4071 53.2202 52.3396 53.2202 52.2476L54.103 41.0502C54.1321 40.7535 54.2318 40.4681 54.3939 40.2173C54.556 39.9666 54.7758 39.7579 55.0352 39.6083C55.4928 39.2756 56.0282 39.0645 56.5909 38.9947L70.3265 37.4547L66.9127 40.6268L57.5724 41.676L56.8934 50.7934L63.0235 50.1124L63.2889 46.8299L59.4553 47.2594L59.6652 44.4493H59.7084L67.0361 43.6271L66.4929 50.7873C66.4588 51.0652 66.3631 51.3321 66.2125 51.5687C66.062 51.8054 65.8604 52.0058 65.6224 52.1555C65.1971 52.4877 64.6896 52.6996 64.1532 52.7691L55.313 53.7631L55.0599 53.7937ZM70.0549 37.5958L56.6094 39.0684C56.0606 39.1404 55.5397 39.3517 55.0969 39.6819C54.8498 39.8232 54.6403 40.021 54.4857 40.259C54.331 40.497 54.2358 40.7682 54.208 41.0502L53.3252 52.2537C53.3164 52.3188 53.3164 52.3849 53.3252 52.45C53.3397 52.664 53.4145 52.8696 53.5412 53.0432C53.6678 53.2169 53.8412 53.3515 54.0413 53.4317C54.4279 53.6404 54.8696 53.7261 55.3068 53.6772L64.1532 52.6832C64.6723 52.6119 65.1615 52.3996 65.5669 52.0696C65.7959 51.9292 65.9903 51.7394 66.1356 51.5142C66.2809 51.2891 66.3735 51.0344 66.4065 50.7689L66.9374 43.7314L59.764 44.5352L59.5664 47.155L63.4 46.7194L63.1161 50.1983H63.079L56.7884 50.9039L57.4675 41.584H57.5107L66.8695 40.5348L70.0549 37.5958Z" fill="white"/>
<path d="M57.7144 49.8731L62.3135 49.3577L62.4493 47.7195L57.8317 48.241L57.7144 49.8731Z" fill="black"/>
<path d="M57.6592 49.9283L57.7888 48.198H57.832L62.5053 47.6765L62.3633 49.4067H62.3262L57.6592 49.9283ZM57.8814 48.2839L57.7641 49.8178L62.2707 49.3147L62.4003 47.7747L57.8814 48.2839Z" fill="white"/>
<path d="M22.7671 51.9653L18.2297 52.4746L18.1001 54.1312L22.6437 53.6219L22.7671 51.9653Z" fill="black"/>
<path d="M18.0508 54.1803L18.1866 52.4316H18.2236L22.8166 51.9163L22.687 53.671H22.6499L18.0508 54.1803ZM18.273 52.5176L18.1557 54.076L22.6005 53.5729L22.7117 52.0206L18.273 52.5176Z" fill="white"/>
<path d="M35.4039 50.5664L32.0024 50.9529L31.8789 52.585L38.7745 51.8058L39.2252 46.1304L35.4039 50.5664ZM38.0276 51.0265L35.9101 51.2658L38.2189 48.5846L38.0276 51.0265Z" fill="black"/>
<path d="M31.8237 52.634L31.9595 50.9099H31.9966L35.3796 50.5295L39.2873 45.9954L38.8181 51.8548H38.7811L31.8237 52.634ZM32.046 50.9958L31.9287 52.5297L38.7194 51.7628L39.1515 46.2776L35.4166 50.6154L32.046 50.9958ZM35.7932 51.3272L38.2625 48.4373L38.0526 51.0695H38.0156L35.7932 51.3272ZM38.1576 48.7257L36.0278 51.1799L37.9785 50.959L38.1576 48.7257Z" fill="white"/>
<path d="M48.3433 43.3264L44.4912 43.7559L44.3862 45.118L48.2384 44.6824L48.3433 43.3264Z" fill="black"/>
<path d="M44.3306 45.1671L44.4479 43.713H44.5034L48.4111 43.2773L48.3 44.7315H48.263L44.3306 45.1671ZM44.5343 43.7989L44.4417 45.0628L48.1951 44.6394L48.2877 43.3817L44.5343 43.7989Z" fill="white"/>
<path d="M18.7174 46.6457L18.6001 48.0139L23.1066 47.5047L23.2178 46.1426L18.7174 46.6457Z" fill="black"/>
<path d="M18.5757 48.0631L18.6992 46.5966H18.7424L23.3045 46.0874L23.181 47.5477H23.1439L18.5757 48.0631ZM18.7918 46.6826L18.6806 47.9587L23.0946 47.4618L23.1995 46.1978L18.7918 46.6826Z" fill="white"/>
<path d="M39.2562 45.7131L39.3674 44.3326L32.4347 45.1119L32.3359 46.4924L39.2562 45.7131Z" fill="black"/>
<path d="M32.2866 46.5415L32.3916 45.069L39.423 44.2775L39.3057 45.7561H39.2625L32.2866 46.5415ZM32.4842 45.1549L32.3916 46.4372L39.2131 45.6703L39.3181 44.3879L32.4842 45.1549Z" fill="white"/>
<path d="M75.1293 35.2152L56.3932 37.3197C55.5943 37.4069 54.8313 37.6963 54.177 38.1603C53.9612 38.3241 53.7645 38.5114 53.5905 38.7186C53.5905 38.7186 52.6522 37.6817 50.4421 37.8842C44.4478 38.4425 26.9835 40.4366 26.9835 40.4366V40.7495C26.4392 40.6004 25.8709 40.5587 25.3105 40.6268L2.08643 43.2099L12.7539 47.9097L11.7847 60.1317L24.5635 58.696C24.9189 58.6535 25.2686 58.5732 25.6068 58.4567V58.5794L38.5708 57.1253L43.8799 61.6963L44.7935 50.3639L47.7259 50.0326L47.195 56.1682L53.9116 55.4135V55.2417C54.4243 55.4197 54.9708 55.4806 55.5104 55.4196L64.3568 54.4073C65.1525 54.3061 65.9057 53.9923 66.536 53.4992C66.9653 53.2096 67.3243 52.8287 67.587 52.384C67.8497 51.9393 68.0095 51.4421 68.0547 50.9284L68.7461 41.725L68.0423 41.8048L75.1293 35.2152ZM67.246 50.8486C67.2073 51.2411 67.0808 51.62 66.8757 51.9576C66.6706 52.2952 66.3921 52.5829 66.0607 52.7997C65.5396 53.2137 64.9137 53.477 64.2519 53.5606L55.4055 54.5545C54.8251 54.6143 54.2397 54.5056 53.7202 54.2416L53.2078 53.9839L53.1522 54.5975L48.0716 55.1681L48.6025 49.0325L44.0219 49.5418L43.1885 59.9722L38.7869 56.2479L26.4402 57.6346L26.4773 57.1069L25.8599 57.4321C25.4151 57.6556 24.9347 57.8009 24.4401 57.8616L12.6428 59.1807L13.5688 47.382L5.27803 43.7314L25.3661 41.4796C25.9584 41.4023 26.5607 41.4806 27.1131 41.7066L27.6564 41.9459L27.7119 41.2158L38.6758 39.9887L50.4854 38.8168C51.0358 38.7455 51.5954 38.8262 52.1028 39.0499C52.4328 39.1619 52.7221 39.3685 52.9341 39.6437C53.1462 39.9188 53.2715 40.2502 53.2942 40.5961C53.2958 41.2889 53.2587 41.9812 53.1831 42.6699L52.9979 44.7437C52.9417 45.2997 52.6773 45.8144 52.2571 46.1856C52.5845 46.2868 52.8787 46.4732 53.109 46.7255L53.5658 40.8661C53.6049 40.4908 53.7305 40.1295 53.9328 39.8102C54.1352 39.491 54.4089 39.2224 54.7326 39.0254C55.2791 38.6377 55.917 38.3968 56.5846 38.3259L64.2334 37.3136L72.6723 36.3687L67.2645 41.3999L58.2823 42.4061L58.1773 43.7866L67.8756 42.6945L67.246 50.8486Z" fill="black"/>
<path d="M43.8864 61.7699L38.5156 57.1498L25.5084 58.6101V58.5058C25.1895 58.6093 24.8605 58.6792 24.5268 58.7144L11.6863 60.1562L12.6432 47.8851L1.83984 43.1239L25.2429 40.5224C25.7884 40.4596 26.3409 40.497 26.8727 40.6329V40.3384H26.9159C27.0888 40.3384 44.4667 38.3382 50.3746 37.7921C52.3624 37.6081 53.3316 38.4057 53.5292 38.5959C53.6965 38.402 53.8849 38.2271 54.0909 38.0743C54.7489 37.6023 55.519 37.3084 56.3257 37.2215L75.2037 35.1047L68.1229 41.6943L68.7403 41.6207L68.0365 50.8854C67.9935 51.4061 67.8336 51.9106 67.5687 52.3619C67.3038 52.8131 66.9405 53.1996 66.5055 53.493C65.8661 53.9927 65.1023 54.3107 64.2955 54.4134L55.4552 55.4073C54.9291 55.4657 54.3965 55.4113 53.8934 55.2478V55.395H53.8563L47.0657 56.1559L47.5966 50.0203L44.763 50.3393L43.8864 61.7699ZM38.5526 57.0455L43.7938 61.5552L44.6951 50.278H44.7383L47.7324 49.9405L47.2015 56.0761L53.8193 55.3337V55.1435H53.8749C54.3818 55.319 54.9221 55.3777 55.4552 55.3153L64.3016 54.3275C65.0885 54.2253 65.8329 53.9137 66.4561 53.4255C66.8809 53.1401 67.2361 52.7638 67.4957 52.3243C67.7552 51.8848 67.9126 51.3932 67.9562 50.8854L68.6476 41.7373L67.8575 41.8232L74.9383 35.2397L56.3504 37.3258C55.5594 37.4104 54.8042 37.6979 54.1589 38.1602C53.9441 38.3163 53.751 38.4999 53.5847 38.7063L53.5477 38.7493L53.5106 38.7063C53.5106 38.7063 52.5538 37.6878 50.3931 37.8903C44.6087 38.4302 27.9036 40.3445 26.9653 40.4365V40.7679H26.9036C26.3656 40.6191 25.8038 40.5753 25.2491 40.639L2.20407 43.2037L12.7481 47.8483L11.7913 60.0458L24.5207 58.6162C24.8722 58.578 25.2181 58.4998 25.5516 58.3831H25.6195V58.5181L38.5526 57.0455ZM43.2073 60.1133L43.1394 60.052L38.7502 56.2724L26.4035 57.6591L26.4406 57.1621L25.8788 57.4505C25.4312 57.6779 24.9461 57.8234 24.4466 57.88L12.5876 59.2114L13.5136 47.3881L5.09936 43.7068L25.3664 41.4305C25.9673 41.3525 26.5783 41.4329 27.1382 41.6637L27.6197 41.8723L27.6752 41.1728H27.7123L38.6761 39.9457L50.4857 38.7677C51.0448 38.6969 51.6127 38.7797 52.1278 39.0069C52.4702 39.1183 52.771 39.3293 52.9912 39.6127C53.2113 39.8961 53.3407 40.2387 53.3625 40.5961C53.3708 41.291 53.3337 41.9858 53.2514 42.676L53.0723 44.7498C53.0178 45.2913 52.7678 45.7948 52.3686 46.1672C52.6397 46.2616 52.8863 46.4146 53.0909 46.615L53.5477 40.8599C53.5832 40.4765 53.709 40.1068 53.9149 39.7806C54.1208 39.4544 54.4011 39.181 54.733 38.9824C55.2799 38.5945 55.9173 38.3517 56.585 38.2768L64.2337 37.2644L72.8208 36.3012L67.2648 41.4428L58.332 42.449L58.2332 43.7313L67.9316 42.6453L67.3142 50.8547C67.2753 51.2543 67.147 51.6402 66.9387 51.9841C66.7304 52.3281 66.4474 52.6214 66.1104 52.8427C65.5752 53.2628 64.935 53.5301 64.2584 53.6157L55.412 54.6097C54.8229 54.671 54.2286 54.5601 53.702 54.2906L53.2514 54.0698L53.1958 54.6833H53.1464L48.004 55.2601L48.5411 49.1245L44.0593 49.6276L43.2073 60.1133ZM38.7811 56.1743L43.1024 59.9047L43.9358 49.5172H43.9729L48.6152 48.9957L48.0843 55.1312L53.0662 54.5668L53.1217 53.9041L53.702 54.1925C54.2109 54.4549 54.7866 54.5617 55.3565 54.4993L64.2584 53.5114C64.9109 53.4292 65.5281 53.1703 66.0425 52.7629C66.3691 52.5493 66.6437 52.2661 66.8466 51.934C67.0495 51.6018 67.1755 51.229 67.2154 50.8425L67.8328 42.7435L58.1345 43.8356L58.2456 42.357H58.2826L67.2463 41.3507L72.543 36.4423L64.2584 37.3565L56.6096 38.3627C55.9572 38.4373 55.3347 38.6759 54.8009 39.056C54.4806 39.2478 54.21 39.5113 54.0106 39.8256C53.8112 40.1399 53.6886 40.4962 53.6526 40.866L53.1835 46.8359L53.1094 46.75C52.884 46.5046 52.596 46.3244 52.276 46.2285H52.2019L52.2575 46.1733C52.672 45.8095 52.9323 45.303 52.9859 44.756L53.1711 42.6883C53.2466 42.0016 53.2837 41.3113 53.2822 40.6206C53.2604 40.2832 53.1385 39.9599 52.9319 39.6912C52.7254 39.4226 52.4434 39.2208 52.1216 39.1113C51.6193 38.8927 51.0666 38.8142 50.5227 38.8842L38.7193 40.0561L27.7925 41.2832L27.737 42.0379L27.1196 41.7741C26.5678 41.5381 25.9629 41.4513 25.3664 41.5225L5.45741 43.7375L13.6371 47.3329L12.7173 59.1071L24.4466 57.7941C24.9357 57.7388 25.4106 57.5953 25.8479 57.3707L26.564 57.0026L26.5208 57.5609L38.7811 56.1743Z" fill="white"/>
</g>
<defs>
<clipPath id="clip0_1210_4436">
<rect width="77" height="63" fill="white" transform="translate(0 0.119751)"/>
</clipPath>
</defs>
</svg>
