<svg width="111" height="42" viewBox="0 0 111 42" fill="none" xmlns="http://www.w3.org/2000/svg">
<g clip-path="url(#clip0_1210_4472)">
<path d="M25.7055 25.5865C24.5051 23.5186 22.6956 21.8676 20.5216 20.8568C20.5216 20.7508 20.4824 20.6392 20.4656 20.5277C21.6309 19.2832 22.4196 17.7366 22.7408 16.0657C22.86 14.7812 23.3659 13.5624 24.1924 12.5686L24.0915 12.1503C23.234 11.7209 22.1804 10.7002 20.9195 9.09945C20.267 8.10664 19.4786 7.20931 18.5769 6.43342C17.4897 5.46851 15.7748 5.17291 13.5331 5.58564C12.5183 5.78633 11.5612 6.20929 10.731 6.82384C10.127 6.48518 9.42899 6.35018 8.74147 6.43899C8.22596 6.56053 7.74977 6.80997 7.35724 7.16407C6.43393 6.93716 5.46643 6.96027 4.55512 7.231C3.36702 7.49314 2.72813 8.53055 2.65527 10.3321L2.73935 10.6611L2.99712 10.8731L3.1204 10.8396C3.39167 10.528 3.71852 10.2689 4.08438 10.0755L4.90258 9.89145C5.13796 9.84125 5.39574 10.2484 5.66475 11.1296L11.3138 35.1407C11.4651 36.0442 11.4427 36.5183 11.2298 36.5685L10.5068 36.747C10.1274 36.7325 9.75523 36.6394 9.41402 36.4737L9.3075 36.5016L9.19545 36.8028L9.27945 37.1541C10.1257 38.7158 11.0504 39.3851 12.0816 39.1118C12.9118 39.0194 13.6939 38.6769 14.3233 38.1302C14.7635 38.2855 15.2373 38.3221 15.6963 38.2362C15.9863 38.1509 16.256 38.0081 16.489 37.8164C16.7221 37.6247 16.9138 37.388 17.0526 37.1207C17.9449 37.3548 18.8769 37.3985 19.7874 37.249L20.7738 36.9533C21.7894 36.7696 22.7274 36.2899 23.4687 35.5749C24.21 34.86 24.7213 33.9421 24.9377 32.9376C25.2729 31.6118 25.721 30.3168 26.2772 29.0668C26.5374 28.4256 26.9029 27.8318 27.3587 27.3099C27.3587 27.2207 27.3307 27.137 27.3195 27.0478C26.6835 26.685 26.1435 26.1763 25.7447 25.5641M12.0928 25.2183C11.5716 24.365 11.0392 23.5116 10.5068 22.6639C10.5909 21.6209 10.6861 20.5723 10.7814 19.5293C11.3493 20.4329 11.9097 21.3364 12.4627 22.24C12.3319 23.2328 12.2086 24.2256 12.0928 25.2183ZM13.8806 19.5684C13.2155 16.3781 12.5505 13.1877 11.8854 9.99742L13.208 9.30582C14.5811 9.04925 15.7636 10.3655 16.7331 13.2491C16.9287 14.2653 17.017 15.299 16.9965 16.3334C16.7947 18.0067 16.352 18.9548 15.6627 19.1668L14.1159 19.5237L13.8806 19.5684ZM18.2855 33.2834L16.8172 33.6905C16.1634 30.5485 15.5095 27.4047 14.8557 24.259L16.3408 23.9578L17.1647 23.9913C18.364 24.6048 19.2027 26.1795 19.681 28.7154V28.8102C19.9163 31.136 19.4456 32.6196 18.2687 33.2722" fill="#231F20"/>
<path d="M25.7055 25.5865C24.5051 23.5186 22.6956 21.8676 20.5216 20.8568C20.5216 20.7508 20.4824 20.6392 20.4656 20.5277C21.6309 19.2832 22.4196 17.7366 22.7408 16.0657C22.86 14.7812 23.3659 13.5624 24.1924 12.5686L24.0915 12.1503C23.234 11.7209 22.1804 10.7002 20.9195 9.09945C20.267 8.10664 19.4786 7.20931 18.5769 6.43342C17.4897 5.46851 15.7748 5.17291 13.5331 5.58564C12.5183 5.78633 11.5612 6.20929 10.731 6.82384C10.127 6.48518 9.42899 6.35018 8.74147 6.43899C8.22596 6.56053 7.74977 6.80997 7.35724 7.16407C6.43393 6.93716 5.46643 6.96027 4.55512 7.231C3.36702 7.49314 2.72813 8.53055 2.65527 10.3321L2.73935 10.6611L2.99712 10.8731L3.1204 10.8396C3.39167 10.528 3.71852 10.2689 4.08438 10.0755L4.90258 9.89145C5.13796 9.84125 5.39574 10.2484 5.66475 11.1296L11.3138 35.1407C11.4651 36.0442 11.4427 36.5183 11.2298 36.5685L10.5068 36.747C10.1274 36.7325 9.75523 36.6394 9.41402 36.4737L9.3075 36.5016L9.19545 36.8028L9.27945 37.1541C10.1257 38.7158 11.0504 39.3851 12.0816 39.1118C12.9118 39.0194 13.6939 38.6769 14.3233 38.1302C14.7635 38.2855 15.2373 38.3221 15.6963 38.2362C15.9863 38.1509 16.256 38.0081 16.489 37.8164C16.7221 37.6247 16.9138 37.388 17.0526 37.1207C17.9449 37.3548 18.8769 37.3985 19.7874 37.249L20.7738 36.9533C21.7894 36.7696 22.7274 36.2899 23.4687 35.5749C24.21 34.86 24.7213 33.9421 24.9377 32.9376C25.2729 31.6118 25.721 30.3168 26.2772 29.0668C26.5374 28.4256 26.9029 27.8318 27.3587 27.3099C27.3587 27.2207 27.3307 27.137 27.3195 27.0478C26.6717 26.6963 26.1182 26.1952 25.7055 25.5865V25.5865ZM12.0536 25.2407C11.5324 24.3873 11 23.5339 10.4676 22.6862C10.5517 21.6432 10.6469 20.5946 10.7422 19.5516C11.3101 20.4552 11.8705 21.3587 12.4235 22.2623C12.3114 23.2551 12.1956 24.2479 12.076 25.2407H12.0536ZM13.8413 19.5907C13.1763 16.4004 12.5113 13.21 11.8462 10.0197L13.1688 9.32813C14.5419 9.07156 15.7244 10.3878 16.6939 13.2714C16.8895 14.2876 16.9778 15.3213 16.9573 16.3557C16.7555 18.029 16.3128 18.9772 15.6235 19.1891L14.0767 19.5461L13.8413 19.5907ZM18.2462 33.3057L16.7779 33.7128C16.1241 30.5709 15.4703 27.427 14.8164 24.2813L16.3016 23.9801L17.1254 24.0136C18.3247 24.6271 19.1635 26.2018 19.6418 28.7377V28.8325C19.9164 31.1584 19.4456 32.642 18.2687 33.3113L18.2462 33.3057Z" stroke="#231F20" stroke-width="7" stroke-miterlimit="10"/>
<path d="M39.6093 32.0229C39.456 32.0097 39.3035 32.0557 39.1834 32.1512C39.0002 32.1767 38.8137 32.1645 38.6354 32.1156C38.4571 32.0667 38.2907 31.982 38.1465 31.8668C37.3339 31.4986 36.8408 30.5393 36.6615 28.972C35.8544 21.8366 35.0493 14.7049 34.246 7.57687C34.246 6.15461 34.7055 5.38492 35.6358 5.28452C35.9716 5.26294 36.3055 5.34894 36.5886 5.52993C37.0369 5.87016 37.2555 5.79207 37.2442 5.30683C37.205 5.12836 37.1714 4.94988 37.1378 4.74909C36.5774 3.48858 35.5293 2.92525 33.9433 3.07585C33.2072 3.12926 32.4954 3.36094 31.8698 3.75072C31.4581 3.5234 30.9878 3.42322 30.5187 3.46295C30.0496 3.50269 29.603 3.68053 29.2358 3.97382C28.6239 3.74863 27.9668 3.67214 27.3192 3.75072C26.7037 3.81966 26.1158 4.04221 25.6098 4.39771C24.8327 5.14137 24.4946 5.84227 24.5955 6.50041C24.6403 6.95777 24.8701 7.05816 25.2792 6.74582C25.3912 6.6134 25.5288 6.5047 25.6838 6.42614C25.8388 6.34758 26.008 6.30077 26.1815 6.28847C27.1566 6.14346 27.7843 7.05816 28.0533 9.03259C29.0135 15.8966 29.9737 22.7643 30.9339 29.6358C31.2309 31.7775 30.9339 32.9153 30.0036 33.0548C29.6548 33.003 29.3395 32.8192 29.1237 32.5416C28.6754 32.4524 28.597 32.7313 28.8884 33.3727C29.6001 34.8117 30.3623 35.4698 31.1973 35.3415C31.9428 35.2262 32.6309 34.874 33.1588 34.3376C33.6612 34.6564 34.2442 34.8266 34.8401 34.8284C35.4005 34.6586 35.8902 34.3121 36.2355 33.8412C36.4434 34.0512 36.6938 34.2145 36.9703 34.3203C37.2467 34.4261 37.5427 34.472 37.8383 34.4547C38.7686 34.3432 39.3982 33.6794 39.727 32.4635C39.727 32.207 39.7269 32.062 39.6204 32.0341M33.0635 22.7141C32.5853 21.844 32.107 20.974 31.6288 20.1039C31.8418 19.0665 32.0547 18.0346 32.2733 16.9972C32.744 17.9194 33.2111 18.8489 33.6744 19.786C33.467 20.7676 33.2597 21.7548 33.0635 22.742" fill="#231F20"/>
<path d="M39.6093 32.0229C39.456 32.0097 39.3035 32.0557 39.1834 32.1512C39.0002 32.1767 38.8137 32.1645 38.6354 32.1156C38.4571 32.0667 38.2907 31.982 38.1465 31.8668C37.3339 31.4986 36.8408 30.5393 36.6615 28.972C35.8544 21.8366 35.0493 14.7049 34.246 7.57687C34.246 6.15461 34.7055 5.38492 35.6358 5.28452C35.9716 5.26294 36.3055 5.34894 36.5886 5.52993C37.0369 5.87016 37.2555 5.79207 37.2442 5.30683C37.205 5.12836 37.1714 4.94988 37.1378 4.74909C36.5774 3.48858 35.5293 2.92525 33.9433 3.07585C33.2072 3.12926 32.4954 3.36094 31.8698 3.75072C31.4581 3.5234 30.9878 3.42322 30.5187 3.46295C30.0496 3.50269 29.603 3.68053 29.2358 3.97382C28.6239 3.74863 27.9668 3.67214 27.3192 3.75072C26.7037 3.81966 26.1158 4.04221 25.6098 4.39771C24.8327 5.14137 24.4946 5.84227 24.5955 6.50041C24.6403 6.95777 24.8701 7.05816 25.2792 6.74582C25.3912 6.6134 25.5288 6.5047 25.6838 6.42614C25.8388 6.34758 26.008 6.30077 26.1815 6.28847C27.1566 6.14346 27.7843 7.05816 28.0533 9.03259C29.0135 15.8966 29.9737 22.7643 30.9339 29.6358C31.2309 31.7775 30.9339 32.9153 30.0036 33.0548C29.6548 33.003 29.3395 32.8192 29.1237 32.5416C28.6754 32.4524 28.597 32.7313 28.8884 33.3727C29.6001 34.8117 30.3623 35.4698 31.1973 35.3415C31.9428 35.2262 32.6309 34.874 33.1588 34.3376C33.6612 34.6564 34.2442 34.8266 34.8401 34.8284C35.4005 34.6586 35.8902 34.3121 36.2355 33.8412C36.4434 34.0512 36.6938 34.2145 36.9703 34.3203C37.2467 34.4261 37.5427 34.472 37.8383 34.4547C38.7686 34.3432 39.3982 33.6794 39.727 32.4635C39.7438 32.1958 39.7158 32.0508 39.6093 32.0229ZM33.0635 22.7141C32.5853 21.844 32.107 20.974 31.6288 20.1039C31.8418 19.0665 32.0547 18.0346 32.2733 16.9972C32.744 17.9194 33.2111 18.8489 33.6744 19.786C33.467 20.7285 33.2597 21.7158 33.0635 22.7141Z" stroke="#231F20" stroke-width="7" stroke-miterlimit="10"/>
<path d="M60.1212 2.28933C59.6849 2.28752 59.2604 2.43009 58.9145 2.69462C58.5685 2.95915 58.3207 3.33064 58.2101 3.75063C57.5768 2.75784 56.9211 2.26702 56.2486 2.26702C54.9092 2.45108 54.2591 3.02556 54.2871 3.98489C54.2871 4.08528 54.3432 4.18568 54.3656 4.28607L54.7466 4.16337L55.5313 4.34185C56.4616 4.89959 56.938 5.94258 56.966 7.48754C57.0444 12.0499 57.1247 16.6141 57.2069 21.1802C54.4982 16.1419 51.6083 11.1222 48.5372 6.12106C48.4843 5.69781 48.5958 5.27043 48.8489 4.92626C49.102 4.58209 49.4777 4.34711 49.899 4.26934L51.3897 4.82709C51.4627 4.68066 51.5065 4.52156 51.5187 4.35858C51.4626 3.00883 50.4482 2.23914 48.4531 2.07739C47.2482 2.21683 46.5365 2.40646 46.3179 2.63514C45.918 2.3615 45.4412 2.22092 44.9561 2.23356C44.5317 2.30276 44.1245 2.45233 43.7567 2.67418C43.284 2.45555 42.7639 2.35778 42.2436 2.38973L41.5487 2.43435L40.6969 2.59052C39.2678 3.56658 38.6065 4.48686 38.6849 5.32906C38.7354 5.5912 38.825 5.71948 38.9596 5.70833H39.0324L40.0636 5.22867L40.624 5.18962C41.4758 5.5094 41.9634 6.43898 42.0867 7.97836C42.6471 14.9948 43.2075 22.0113 43.768 29.0277C43.682 30.9799 43.1926 31.9968 42.2997 32.0786L41.7392 32.1344C41.7227 32.169 41.704 32.2025 41.6832 32.2348C41.7785 33.2499 42.395 33.7797 43.5326 33.8523C44.2892 33.7797 44.8104 33.2443 45.113 32.2292H45.1915C45.6174 33.183 46.1666 33.6292 46.8727 33.579H46.94C48.0945 33.3335 48.6212 32.7089 48.5876 31.6826H48.5203L48.4531 31.5934L47.988 31.6268L47.4948 31.5432C46.6317 31.0115 46.1461 29.9833 46.0377 28.4588C45.6641 23.2309 45.2905 18.0048 44.9169 12.7806C48.2794 18.1572 51.4122 23.5655 54.3152 29.0054C54.404 29.2301 54.4444 29.4708 54.4337 29.7119C54.4231 29.9531 54.3617 30.1893 54.2535 30.4054C54.0405 30.74 53.4185 30.885 52.3873 30.8571L51.4738 30.411L51.3393 30.6062C51.3393 30.7066 51.3393 30.807 51.3393 30.9073C51.4065 32.2459 52.2976 32.9877 54.0181 33.1383C55.0717 32.9877 55.6994 32.8037 55.9068 32.5806C56.2258 32.8696 56.6411 33.0305 57.0724 33.0324C57.4584 32.9727 57.8261 32.8279 58.1485 32.6085C58.535 32.8582 58.9879 32.9864 59.4486 32.9766H60.0595L61.0178 32.7535C61.9649 32.1121 62.4469 31.4316 62.4525 30.6898C62.4525 30.4277 62.3852 30.2938 62.2451 30.2994H62.0994C61.9492 30.4809 61.7624 30.6288 61.5509 30.7335C61.3394 30.8383 61.1081 30.8975 60.8721 30.9073H60.7432C60.3699 30.5565 60.0767 30.1299 59.8833 29.6565C59.6899 29.183 59.6009 28.6738 59.6224 28.1632C59.5775 21.2063 59.529 14.2549 59.4767 7.30906L59.5439 6.61188C59.8073 4.97768 60.4238 4.16337 61.3821 4.17452L61.9425 4.29723H62.0154L62.105 4.1801C61.9033 2.93074 61.2588 2.29492 60.1716 2.28376M52.6059 20.5221C52.0118 20.0536 51.4122 19.5907 50.8125 19.1277V18.7317L50.6275 16.2386H50.6948C51.3281 16.6792 51.9557 17.1198 52.5778 17.566C52.617 18.5532 52.6507 19.5349 52.6899 20.5221H52.6227" fill="#231F20"/>
<path d="M60.1212 2.28933C59.6849 2.28752 59.2604 2.43009 58.9145 2.69462C58.5685 2.95915 58.3207 3.33064 58.2101 3.75063C57.5768 2.75784 56.9211 2.26702 56.2486 2.26702C54.9092 2.45108 54.2591 3.02556 54.2871 3.98489C54.2871 4.08528 54.3432 4.18568 54.3656 4.28607L54.7466 4.16337L55.5313 4.34185C56.4616 4.89959 56.938 5.94258 56.966 7.48754C57.0444 12.0499 57.1247 16.6141 57.2069 21.1802C54.4982 16.1419 51.6083 11.1222 48.5372 6.12106C48.4843 5.69781 48.5958 5.27043 48.8489 4.92626C49.102 4.58209 49.4777 4.34711 49.899 4.26934L51.3897 4.82709C51.4627 4.68066 51.5065 4.52156 51.5187 4.35858C51.4626 3.00883 50.4482 2.23914 48.4531 2.07739C47.2482 2.21683 46.5365 2.40646 46.3179 2.63514C45.918 2.3615 45.4412 2.22092 44.9561 2.23356C44.5317 2.30276 44.1245 2.45233 43.7567 2.67418C43.284 2.45555 42.7639 2.35778 42.2436 2.38973L41.5487 2.43435L40.6969 2.59052C39.2678 3.56658 38.6065 4.48686 38.6849 5.32906C38.7354 5.5912 38.825 5.71948 38.9596 5.70833H39.0324L40.0636 5.22867L40.624 5.18962C41.4758 5.5094 41.9634 6.43898 42.0867 7.97836C42.6471 14.9948 43.2075 22.0113 43.768 29.0277C43.682 30.9799 43.1926 31.9968 42.2997 32.0786L41.7392 32.1344C41.7227 32.169 41.704 32.2025 41.6832 32.2348C41.7785 33.2499 42.395 33.7797 43.5326 33.8523C44.2892 33.7797 44.8104 33.2443 45.113 32.2292H45.1915C45.6174 33.183 46.1666 33.6292 46.8727 33.579H46.94C48.0945 33.3335 48.6212 32.7089 48.5876 31.6826H48.5203L48.4531 31.5934L47.988 31.6268L47.4948 31.5432C46.6317 31.0115 46.1461 29.9833 46.0377 28.4588C45.6641 23.2309 45.2905 18.0048 44.9169 12.7806C48.2794 18.1572 51.4122 23.5655 54.3152 29.0054C54.404 29.2301 54.4444 29.4708 54.4337 29.7119C54.4231 29.9531 54.3617 30.1893 54.2535 30.4054C54.0405 30.74 53.4185 30.885 52.3873 30.8571L51.4738 30.411L51.3393 30.6062C51.3393 30.7066 51.3393 30.807 51.3393 30.9073C51.4065 32.2459 52.2976 32.9877 54.0181 33.1383C55.0717 32.9877 55.6994 32.8037 55.9068 32.5806C56.2258 32.8696 56.6411 33.0305 57.0724 33.0324C57.4584 32.9727 57.8261 32.8279 58.1485 32.6085C58.535 32.8581 58.9879 32.9864 59.4486 32.9766H60.0595L61.0178 32.7535C61.9649 32.1121 62.4469 31.4316 62.4525 30.6898C62.4525 30.4277 62.3852 30.2938 62.2451 30.2994H62.0994C61.9492 30.4809 61.7624 30.6288 61.5509 30.7335C61.3394 30.8383 61.1081 30.8975 60.8721 30.9073H60.7432C60.3699 30.5565 60.0767 30.1299 59.8833 29.6565C59.6899 29.183 59.6009 28.6738 59.6224 28.1632C59.5775 21.2063 59.529 14.2549 59.4767 7.30906L59.5439 6.61188C59.8073 4.97768 60.4238 4.16337 61.3821 4.17452L61.9425 4.29723H62.0154L62.105 4.1801C61.8528 2.93632 61.2084 2.30049 60.1212 2.28933ZM52.6059 20.5221C52.0118 20.0536 51.4122 19.5907 50.8125 19.1277V18.7317L50.6275 16.2386H50.6948C51.3281 16.6792 51.9557 17.1198 52.5778 17.566C52.617 18.5532 52.6507 19.5349 52.6899 20.5221H52.6059Z" stroke="#231F20" stroke-width="7" stroke-miterlimit="10"/>
<path d="M83.6474 18.5979C83.3341 18.5206 83.0032 18.5632 82.7199 18.717C82.4366 18.8709 82.2216 19.1249 82.1174 19.4289C82.0405 19.1806 81.8943 18.9592 81.6959 18.7904C81.4975 18.6215 81.255 18.5122 80.9966 18.4752C80.729 18.4631 80.4633 18.525 80.2289 18.654C79.9945 18.7829 79.8005 18.9739 79.6684 19.2058C79.447 18.8569 79.1411 18.5689 78.7788 18.3681C78.4166 18.1674 78.0094 18.0604 77.5948 18.0569C77.022 17.9884 76.4433 18.1239 75.9612 18.4393C75.4791 18.7548 75.1248 19.2298 74.9608 19.7803C75.0579 19.7854 75.1552 19.7854 75.2523 19.7803C75.3475 19.7752 75.4429 19.7752 75.5381 19.7803C76.9672 19.8751 77.606 21.0074 77.4435 23.1268L77.2081 26.3171C76.9559 29.6022 75.8575 31.1695 73.9072 31.0691C73.4675 31.0808 73.0324 30.9778 72.645 30.7704C72.2577 30.5629 71.9316 30.2583 71.6991 29.8867C71.1387 28.9441 70.937 27.3434 71.0379 25.0789L71.6936 10.6723C71.8673 6.58959 73.4701 4.62074 76.502 4.84941C77.9409 4.97209 79.2875 5.60555 80.2961 6.6342C80.8852 7.15345 81.3441 7.8027 81.636 8.53003C81.928 9.25735 82.0449 10.0426 81.9773 10.8229C81.9045 11.626 81.798 12.4961 81.6579 13.422C81.9962 13.4514 82.3358 13.3815 82.6346 13.2209C82.9334 13.0603 83.1783 12.8161 83.3391 12.5184C83.7504 11.8723 83.9931 11.1342 84.0453 10.3711C84.0876 9.61177 84.0613 8.85018 83.9668 8.0955C83.8777 7.42255 83.8384 6.74399 83.8491 6.0653C83.911 5.66174 84.02 5.26677 84.1742 4.88846C84.312 4.56742 84.4154 4.23277 84.4824 3.89009C84.5104 3.58891 84.3927 3.42158 84.1293 3.39369C83.3335 3.31003 82.5545 3.87893 81.8036 5.1004C80.5034 3.57217 78.5924 2.68535 76.0985 2.49572C73.6211 2.28414 71.1574 3.03352 69.2221 4.58727C67.0925 6.26051 65.5681 8.72018 64.6322 11.9495C64.3912 12.9423 64.1559 13.9351 63.9149 14.9279C63.6967 15.8759 63.2867 16.7697 62.71 17.5549C63.2669 18.3472 63.6646 19.2393 63.8812 20.1819C64.0718 21.1858 64.2623 22.1842 64.4417 23.1881C65.2318 26.4008 66.5488 28.9274 68.3646 30.7847C69.8208 32.3974 71.8513 33.3818 74.0249 33.5288C75.886 33.6846 77.7386 33.1437 79.22 32.0117C79.8197 33.5957 80.6211 34.4268 81.6635 34.516C82.0749 34.5667 82.4923 34.5355 82.8915 34.4245C83.2907 34.3134 83.6639 34.1246 83.9892 33.869C82.7171 33.1662 82.1959 31.532 82.4537 28.9497L83.0141 23.6009C83.2215 21.4759 84.0061 20.4775 85.3511 20.6225L85.6201 20.6727C85.7142 20.6969 85.8096 20.7155 85.9059 20.7285C85.894 20.4526 85.8246 20.1822 85.702 19.9345C85.5795 19.6868 85.4066 19.4671 85.1942 19.2895C84.7708 18.8957 84.2295 18.6508 83.653 18.5923M67.4007 20.1373C67.0757 19.3006 66.745 18.4622 66.4087 17.6218C66.7842 16.7573 67.1597 15.8928 67.5296 15.0283C67.8434 15.917 68.1554 16.8038 68.4655 17.6888C68.1012 18.5031 67.7425 19.323 67.3839 20.1373" fill="#231F20"/>
<path d="M83.6474 18.5979C83.3341 18.5206 83.0032 18.5632 82.7199 18.717C82.4366 18.8709 82.2216 19.1249 82.1174 19.4289C82.0405 19.1806 81.8943 18.9592 81.6959 18.7904C81.4975 18.6215 81.255 18.5122 80.9966 18.4752C80.729 18.4631 80.4633 18.525 80.2289 18.654C79.9945 18.7829 79.8005 18.9739 79.6684 19.2058C79.447 18.8569 79.1411 18.5689 78.7788 18.3681C78.4166 18.1674 78.0094 18.0604 77.5948 18.0569C77.022 17.9884 76.4433 18.1239 75.9612 18.4393C75.4791 18.7548 75.1248 19.2298 74.9608 19.7803C75.0579 19.7854 75.1552 19.7854 75.2523 19.7803C75.3475 19.7752 75.4429 19.7752 75.5381 19.7803C76.9672 19.8751 77.606 21.0074 77.4435 23.1268L77.2081 26.3171C76.9559 29.6022 75.8575 31.1695 73.9072 31.0691C73.4675 31.0808 73.0324 30.9778 72.645 30.7704C72.2577 30.5629 71.9316 30.2583 71.6991 29.8867C71.1387 28.9441 70.937 27.3434 71.0379 25.0789L71.6936 10.6723C71.8673 6.58959 73.4701 4.62074 76.502 4.84941C77.9409 4.97209 79.2875 5.60555 80.2961 6.6342C80.8852 7.15345 81.3441 7.8027 81.636 8.53003C81.928 9.25735 82.0449 10.0426 81.9773 10.8229C81.9045 11.626 81.798 12.4961 81.6579 13.422C81.9962 13.4514 82.3358 13.3815 82.6346 13.2209C82.9334 13.0603 83.1783 12.8161 83.3391 12.5184C83.7504 11.8723 83.9931 11.1342 84.0453 10.3711C84.0876 9.61177 84.0613 8.85018 83.9668 8.0955C83.8777 7.42255 83.8384 6.74399 83.8491 6.0653C83.911 5.66174 84.02 5.26677 84.1742 4.88846C84.312 4.56742 84.4154 4.23277 84.4824 3.89009C84.5104 3.58891 84.3927 3.42158 84.1293 3.39369C83.3335 3.31003 82.5545 3.87893 81.8036 5.1004C80.5034 3.57217 78.5924 2.68535 76.0985 2.49572C73.6211 2.28414 71.1574 3.03352 69.2221 4.58727C67.0925 6.26051 65.5681 8.72018 64.6322 11.9495C64.3912 12.9423 64.1559 13.9351 63.9149 14.9279C63.6967 15.8759 63.2867 16.7697 62.71 17.5549C63.2669 18.3472 63.6646 19.2393 63.8812 20.1819C64.0718 21.1858 64.2623 22.1842 64.4417 23.1881C65.2318 26.4008 66.5488 28.9274 68.3646 30.7847C69.8208 32.3974 71.8513 33.3818 74.0249 33.5288C75.886 33.6846 77.7386 33.1437 79.22 32.0117C79.8197 33.5957 80.6211 34.4267 81.6635 34.516C82.0749 34.5666 82.4923 34.5355 82.8915 34.4245C83.2907 34.3134 83.6639 34.1246 83.9892 33.869C82.7171 33.1662 82.1959 31.532 82.4537 28.9497L83.0141 23.6009C83.2215 21.4759 84.0061 20.4775 85.3511 20.6225L85.6201 20.6727C85.7142 20.6969 85.8096 20.7155 85.9059 20.7285C85.894 20.4526 85.8246 20.1822 85.702 19.9345C85.5795 19.6868 85.4066 19.4671 85.1942 19.2895C84.7686 18.8966 84.2252 18.6537 83.6474 18.5979V18.5979ZM67.3951 20.1428C67.0701 19.3062 66.7394 18.4677 66.4031 17.6274C66.7786 16.7629 67.1541 15.8984 67.524 15.0339C67.8378 15.9226 68.1498 16.8094 68.4599 17.6943C68.1012 18.5086 67.7369 19.3285 67.3839 20.1428H67.3951Z" stroke="#231F20" stroke-width="7" stroke-miterlimit="10"/>
<path d="M108.087 19.0051C108.176 17.2043 108.082 15.3993 107.807 13.6172C106.686 8.48594 104.08 5.56334 100.135 5.03348C98.3082 4.56906 96.3793 4.70603 94.6372 5.42391C92.8887 6.13782 91.241 8.21264 89.7335 11.6428C88.3156 15.7255 87.1892 18.1071 86.3037 18.7652C87.0883 19.7692 87.5478 21.8998 87.6711 25.1403C87.8732 26.3764 88.1539 27.5984 88.5117 28.7991C89.6942 32.7758 91.5268 34.9845 94.116 35.4921C94.8723 35.7254 95.6613 35.8365 96.453 35.8211C97.5889 35.7644 98.7087 35.5291 99.7707 35.1239C101.421 34.0352 102.834 32.6256 103.923 30.9799C104.986 29.3829 105.881 27.6823 106.597 25.9044C107.288 24.1716 107.953 23.0078 108.592 22.4129C108.435 21.2639 108.261 20.1261 108.082 18.9939M90.7983 22.5523C90.6246 21.7045 90.4452 20.8791 90.2715 19.9978C90.6694 19.1724 91.0673 18.3525 91.4764 17.5326L91.9304 20.2209C91.5493 20.9962 91.1682 21.7771 90.8095 22.5523M102.545 16.1048C102.124 17.9833 101.242 19.7289 99.9781 21.1858C100.725 22.5691 100.964 24.4896 100.695 26.9474C99.6811 30.8516 98.0782 32.5639 95.8534 32.2181C93.3595 31.8388 92.4068 29.658 92.9896 25.6144C93.309 23.4447 93.9983 21.7603 95.0744 20.5946C94.322 18.8192 94.0926 16.8673 94.413 14.967C95.2873 10.505 96.9686 8.48036 99.4568 8.90425C101.945 9.32814 103.049 11.7711 102.567 16.1103M103.963 24.7052C103.839 23.8519 103.716 22.9985 103.587 22.1452C104.036 21.3587 104.484 20.5667 104.938 19.7859C105.039 20.6783 105.14 21.5763 105.235 22.4687C104.809 23.2123 104.385 23.956 103.963 24.6996" fill="#231F20"/>
<path d="M108.087 19.0051C108.176 17.2043 108.082 15.3993 107.807 13.6172C106.686 8.48594 104.08 5.56334 100.135 5.03348C98.3082 4.56906 96.3793 4.70603 94.6372 5.42391C92.8887 6.13782 91.241 8.21264 89.7335 11.6428C88.3156 15.7255 87.1892 18.1071 86.3037 18.7652C87.0883 19.7692 87.5478 21.8998 87.6711 25.1403C87.8732 26.3764 88.1539 27.5984 88.5117 28.7991C89.6942 32.7758 91.5268 34.9845 94.116 35.4921C94.8723 35.7254 95.6613 35.8365 96.453 35.8211C97.5889 35.7644 98.7087 35.5291 99.7707 35.1239C101.421 34.0352 102.834 32.6256 103.923 30.9799C104.986 29.3829 105.881 27.6823 106.597 25.9044C107.288 24.1716 107.953 23.0078 108.592 22.4129C108.429 21.2751 108.256 20.1373 108.087 19.0051ZM90.8039 22.5635C90.6302 21.7157 90.4508 20.8902 90.2771 20.009C90.675 19.1835 91.0729 18.3636 91.482 17.5438L91.936 20.2321C91.5437 21.0074 91.1626 21.7882 90.7927 22.5635H90.8039ZM102.539 16.1159C102.118 17.9945 101.236 19.74 99.9725 21.197C100.72 22.5802 100.959 24.5007 100.69 26.9585C99.6755 30.8628 98.0726 32.575 95.8477 32.2292C93.3539 31.85 92.4011 29.6692 92.984 25.6255C93.3034 23.4559 93.9927 21.7715 95.0687 20.6058C94.3164 18.8303 94.087 16.8785 94.4074 14.9781C95.2817 10.5161 96.963 8.49151 99.4512 8.9154C101.94 9.33929 103.01 11.7766 102.528 16.1159H102.539ZM103.935 24.7108C103.811 23.8575 103.688 23.0041 103.559 22.1507C104.008 21.3643 104.456 20.5723 104.91 19.7915C105.011 20.6839 105.112 21.5818 105.207 22.4742C104.773 23.2179 104.346 23.9634 103.923 24.7108H103.935Z" stroke="#231F20" stroke-width="7" stroke-miterlimit="10"/>
<path d="M4.4931 6.78485C5.77086 6.5004 6.73479 6.48367 7.29522 6.71793C7.68887 6.36119 8.16708 6.10978 8.68506 5.98728C9.37146 5.8981 10.0683 6.03524 10.669 6.3777C11.498 5.76018 12.4555 5.3352 13.4711 5.13393C15.7128 4.72119 17.3941 5.02238 18.5149 5.98728C19.4179 6.76186 20.2065 7.65939 20.8574 8.65331C22.1184 10.254 23.1664 11.2691 24.0295 11.7042L24.1303 12.1225C23.3005 13.1142 22.7942 14.3341 22.6788 15.6196C22.3534 17.2901 21.5631 18.8361 20.3979 20.0815C20.3979 20.1875 20.4371 20.2991 20.4596 20.4106C22.6335 21.4215 24.4431 23.0725 25.6435 25.1403C26.0423 25.7525 26.5822 26.2611 27.2182 26.6239C27.2182 26.7076 27.2183 26.7968 27.2575 26.8805C26.7979 27.4028 26.4303 27.9987 26.1703 28.643C25.6146 29.8926 25.1683 31.1877 24.8364 32.5137C24.6176 33.5166 24.1055 34.4325 23.3645 35.1462C22.6235 35.8598 21.6868 36.3392 20.6725 36.5239L19.6862 36.8251C18.7757 36.9747 17.8437 36.931 16.9513 36.6968C16.811 36.9547 16.6209 37.1825 16.392 37.3672C16.1632 37.5519 15.9 37.6899 15.6175 37.7733C15.1607 37.8587 14.6894 37.8241 14.2501 37.6729C13.6207 38.2196 12.8386 38.5621 12.0084 38.6545C10.9772 38.9055 10.0525 38.2585 9.20628 36.6968L9.1222 36.3455L9.22865 36.0443L9.34078 36.0164C9.68098 36.1795 10.0508 36.2724 10.428 36.2897L11.1565 36.1112C11.3639 36.061 11.3919 35.5813 11.235 34.6778L5.58589 10.6947C5.31689 9.819 5.06471 9.40627 4.82934 9.46204L4.00553 9.6461C3.64043 9.83823 3.3152 10.0975 3.04716 10.4102L2.92388 10.4381L2.6605 10.2262C2.6605 10.1202 2.61005 10.0086 2.58203 9.89709C2.64928 8.10114 3.28817 7.06373 4.48188 6.80159M10.4336 22.2568C10.994 23.1045 11.4984 23.9579 12.0252 24.8057C12.1428 23.8129 12.2662 22.8201 12.3894 21.8273C11.829 20.9237 11.2686 20.0258 10.7082 19.1222C10.611 20.1634 10.5176 21.2082 10.428 22.2568M11.8122 9.59032C12.4735 12.7806 13.1367 15.971 13.8017 19.1613L14.0427 19.1111C14.5583 18.9939 15.0739 18.8712 15.5894 18.7597C16.2788 18.5422 16.7103 17.5996 16.9233 15.9263C16.9412 14.892 16.8529 13.8585 16.6599 12.842C15.6903 9.95844 14.5022 8.63658 13.1348 8.89314L11.8122 9.59032ZM14.7825 23.8519C15.4326 26.9976 16.0864 30.1415 16.744 33.2834L18.2123 32.8763C19.3892 32.207 19.8599 30.7234 19.6245 28.4143C19.6226 28.3827 19.6226 28.351 19.6245 28.3195C19.1463 25.7799 18.3094 24.2052 17.1139 23.5954L16.29 23.5619L14.8049 23.8631" fill="white"/>
<path d="M27.2854 3.29331C27.9326 3.21273 28.5898 3.28731 29.2021 3.51083C29.5706 3.22025 30.0169 3.04413 30.4853 3.00445C30.9538 2.96478 31.4235 3.0633 31.836 3.28773C32.4643 2.91415 33.1735 2.6961 33.904 2.6519C35.4844 2.5013 36.5548 3.06463 37.0928 4.32514C37.1321 4.50362 37.1657 4.6821 37.1993 4.88288C37.1993 5.36812 36.9976 5.44063 36.5492 5.10041C36.2646 4.91871 35.9281 4.8345 35.5909 4.86057C34.6662 4.96097 34.2011 5.72508 34.2067 7.14734C35.0062 14.2828 35.8113 21.4164 36.6221 28.5481C36.8014 30.1098 37.2946 31.0728 38.1016 31.4372C38.2467 31.5531 38.4139 31.6385 38.593 31.6883C38.7722 31.7382 38.9596 31.7514 39.144 31.7273C39.2018 31.6788 39.2688 31.6424 39.341 31.6204C39.4133 31.5983 39.4892 31.5911 39.5643 31.599C39.6652 31.6269 39.7045 31.7663 39.6764 32.0229C39.3402 33.2443 38.7181 33.9025 37.7878 34.014C37.4919 34.0335 37.1953 33.9887 36.9186 33.8828C36.6418 33.7768 36.3915 33.6123 36.1849 33.4005C35.8385 33.8715 35.3494 34.2195 34.7895 34.3933C34.194 34.3894 33.6115 34.2194 33.1082 33.9025C32.5751 34.4349 31.8867 34.7862 31.1411 34.9064C30.3117 35.0291 29.5495 34.3487 28.8378 32.932C28.5408 32.2906 28.6193 32.0117 29.0732 32.101C29.289 32.3785 29.6042 32.5623 29.953 32.6141C30.8665 32.4746 31.1748 31.3424 30.8777 29.1951L28.0028 8.5919C27.7263 6.6212 27.1024 5.70649 26.131 5.84779C25.9569 5.86089 25.7871 5.90802 25.6313 5.9865C25.4755 6.06498 25.3368 6.17326 25.2231 6.30514C24.814 6.60075 24.5898 6.52266 24.545 6.06531C24.4441 5.39044 24.7747 4.68767 25.5593 3.9626C26.0542 3.60602 26.6334 3.38312 27.2406 3.31562M32.1891 16.5621C31.9649 17.5921 31.7502 18.6276 31.5447 19.6688C32.0266 20.5314 32.503 21.3996 32.9737 22.2734C33.1755 21.2918 33.3772 20.3046 33.5902 19.323C33.125 18.3971 32.6599 17.4824 32.1891 16.5342" fill="white"/>
<path d="M41.4812 1.98818L42.1762 1.94357C42.6948 1.90942 43.2136 2.00731 43.6837 2.22801C44.0523 2.00799 44.4591 1.85855 44.883 1.7874C45.3699 1.77473 45.8484 1.91525 46.2504 2.18897C46.469 1.9603 47.1807 1.77066 48.3856 1.63123C50.3751 1.78739 51.3951 2.56267 51.4511 3.91241C51.4329 4.0743 51.3894 4.23237 51.3222 4.38092C50.8235 4.20244 50.3247 4.01838 49.826 3.82317C49.4067 3.90216 49.0333 4.13686 48.7815 4.47967C48.5296 4.82248 48.4182 5.24777 48.4697 5.66932C51.5408 10.6593 54.4307 15.679 57.1394 20.7285C57.0573 16.1624 56.977 11.5982 56.8985 7.0358C56.8686 5.48526 56.3904 4.4367 55.4638 3.8901L54.6736 3.71162L54.2981 3.83433C54.2981 3.73394 54.2421 3.63354 54.2197 3.53315C54.1916 2.57382 54.8417 1.99376 56.1811 1.81528C56.8537 1.81528 57.5093 2.3061 58.1426 3.29331C58.2541 2.86755 58.5056 2.49119 58.857 2.2243C59.2085 1.95742 59.6396 1.81538 60.0817 1.82086C61.1689 1.82086 61.8134 2.45483 62.0152 3.72278L61.9199 3.83433H61.847L61.2866 3.71162C60.3339 3.71162 59.7174 4.51478 59.454 6.14898L59.3868 6.84616C59.4353 13.7957 59.4839 20.7452 59.5325 27.6948C59.5114 28.2053 59.6006 28.7144 59.7939 29.1878C59.9873 29.6611 60.2803 30.0878 60.6533 30.4389H60.7822C61.0192 30.4298 61.2516 30.371 61.4641 30.2662C61.6765 30.1614 61.8644 30.0131 62.0152 29.8309H62.1609C62.301 29.8309 62.3682 29.9648 62.3682 30.2269C62.3682 30.9706 61.8881 31.6585 60.9279 32.2906L59.9696 32.5081H59.3644C58.9043 32.5133 58.4526 32.3854 58.0642 32.14C57.7393 32.3577 57.3699 32.5006 56.9826 32.5583C56.5531 32.5556 56.1397 32.3947 55.8225 32.1065C55.6151 32.3296 54.9818 32.5137 53.9338 32.6643C52.2133 32.4858 51.3166 31.7496 51.255 30.4333V30.1265C51.3054 30.0652 51.3503 29.9983 51.3951 29.9369L52.303 30.3775C53.3398 30.411 53.9843 30.2604 54.1749 29.9257C54.2817 29.7093 54.3424 29.4731 54.353 29.2322C54.3636 28.9913 54.3239 28.7507 54.2365 28.5258C51.3111 23.0933 48.1783 17.6869 44.8382 12.3065L45.931 27.9792C46.0431 29.5074 46.5306 30.5337 47.3937 31.0691L47.8812 31.1528L48.352 31.1193L48.4193 31.2086H48.4865C48.5426 32.2348 47.9934 32.8818 46.8053 33.1105H46.7436C46.0655 33.1663 45.5163 32.7145 45.0903 31.7607H45.0063C44.7092 32.7703 44.1825 33.3113 43.4315 33.3782C42.3107 33.3113 41.6773 32.7758 41.5821 31.7607L41.6382 31.6603L42.1986 31.6101C43.1009 31.5209 43.5828 30.4946 43.6669 28.5537C43.1065 21.5372 42.5461 14.5226 41.9856 7.50988C41.8623 5.96492 41.3803 5.03348 40.5229 4.72115L39.9624 4.76577L38.9313 5.24543H38.864C38.7295 5.24543 38.6399 5.1283 38.5894 4.86616C38.511 4.02396 39.1498 3.10368 40.6013 2.12205L41.4532 1.97145M50.5153 15.7757L50.7002 18.2633V18.6593L52.4936 20.0592H52.5608L52.4487 17.1031C51.8266 16.6625 51.199 16.2163 50.5657 15.7757H50.4984" fill="white"/>
<path d="M83.9895 33.4284C83.6603 33.6871 83.2825 33.8775 82.8783 33.9887C82.474 34.0998 82.0516 34.1293 81.6357 34.0754C80.5989 33.9862 79.7919 33.1551 79.1978 31.5656C77.7165 32.7023 75.861 33.2456 73.9971 33.0882C71.8242 32.9401 69.7952 31.9535 68.3424 30.3385C66.5154 28.4812 65.204 25.9602 64.4194 22.7476C64.2252 21.7436 64.0384 20.7397 63.859 19.7357C63.6478 18.794 63.2516 17.9032 62.6934 17.1143C63.2712 16.3278 63.6812 15.4319 63.8983 14.4818C64.1337 13.4946 64.3747 12.5018 64.61 11.5034C65.5515 8.27962 67.0759 5.81437 69.2055 4.14671C71.1309 2.60889 73.5773 1.86789 76.0371 2.07747C78.5254 2.2671 80.442 3.14834 81.7422 4.68215C82.4931 3.46068 83.2721 2.89178 84.0623 2.97544C84.3313 3.00333 84.449 3.17065 84.421 3.47184C84.3503 3.8136 84.2471 4.1479 84.1127 4.4702C83.9553 4.8474 83.8462 5.24278 83.7877 5.64705C83.7772 6.32556 83.8146 7.00397 83.8998 7.67725C83.9983 8.42971 84.0264 9.18964 83.9839 9.94728C83.9336 10.7107 83.6907 11.4493 83.2777 12.0946C83.1177 12.3933 82.873 12.6387 82.5742 12.8003C82.2753 12.9619 81.9353 13.0326 81.5964 13.0037C81.7366 12.0723 81.8431 11.2022 81.9159 10.3991C81.9835 9.61874 81.8666 8.83352 81.5746 8.10619C81.2827 7.37887 80.8238 6.72963 80.2347 6.21038C79.2255 5.18254 77.8792 4.54923 76.4406 4.42558C73.4143 4.19691 71.8114 6.16576 71.6321 10.2485C71.4117 15.0525 71.195 19.8566 70.9821 24.6607C70.8812 26.9251 71.1016 28.5277 71.6433 29.4684C71.8753 29.8392 72.2005 30.1433 72.5868 30.3507C72.973 30.5581 73.4071 30.6615 73.8458 30.6509C75.8017 30.7513 76.9001 29.184 77.1467 25.8989L77.382 22.7085C77.5446 20.5668 76.9113 19.4401 75.4822 19.3621C75.3852 19.3541 75.2878 19.3541 75.1908 19.3621H74.8994C75.0646 18.8115 75.4202 18.337 75.9034 18.0225C76.3866 17.7081 76.966 17.5741 77.539 17.6442C77.9536 17.6477 78.3608 17.7547 78.723 17.9554C79.0853 18.1562 79.3911 18.4442 79.6125 18.7932C79.7441 18.5608 79.9381 18.3695 80.1726 18.2405C80.4071 18.1114 80.6731 18.0498 80.9408 18.0625C81.1994 18.0989 81.4422 18.208 81.6408 18.3769C81.8393 18.5458 81.9853 18.7676 82.0616 19.0163C82.1658 18.712 82.3805 18.4575 82.6636 18.3027C82.9467 18.1479 83.2777 18.104 83.5916 18.1796C84.1673 18.2448 84.7072 18.4909 85.1328 18.8824C85.3455 19.0594 85.5183 19.279 85.64 19.527C85.7616 19.7749 85.8294 20.0456 85.8389 20.3214L85.5531 20.2656L85.2896 20.2154C83.939 20.0648 83.1601 21.0688 82.9527 23.1938L82.3923 28.537C82.142 31.1212 82.6557 32.7629 83.9334 33.4619M67.4457 14.6212C67.0721 15.4801 66.6985 16.3446 66.3249 17.2147C66.6555 18.0513 66.9918 18.888 67.3169 19.7302C67.6905 18.9084 68.051 18.0904 68.3985 17.2761C68.0921 16.3911 67.7783 15.5062 67.457 14.6212" fill="white"/>
<path d="M100.085 4.58735C104.008 5.11164 106.647 8.03423 107.751 13.1711C108.031 14.9508 108.126 16.7543 108.037 18.5533C108.216 19.6911 108.385 20.8308 108.541 21.9723C107.908 22.5691 107.241 23.7348 106.552 25.4694C105.834 27.2463 104.939 28.9467 103.879 30.5449C102.789 32.1905 101.374 33.5984 99.7204 34.6834C98.6604 35.0897 97.5426 35.3269 96.4083 35.3862C95.6165 35.3972 94.8279 35.2843 94.0713 35.0515C91.4765 34.5384 89.644 32.3297 88.4671 28.3585C88.106 27.1569 87.8252 25.9327 87.6264 24.6941C87.5031 21.4592 87.066 19.3286 86.2534 18.3247C87.1445 17.661 88.2653 15.2849 89.6888 11.2022C91.1908 7.77209 92.844 5.69727 94.5925 4.98335C96.3346 4.26548 98.2634 4.12851 100.09 4.59293M91.4317 17.1032C91.0282 17.9212 90.6266 18.7411 90.2268 19.5629C90.4061 20.4162 90.5798 21.2696 90.7536 22.1229C91.1272 21.3421 91.5008 20.565 91.8744 19.7915C91.7287 18.8936 91.5774 17.9956 91.4205 17.1032M94.3515 14.532C94.0278 16.4304 94.2573 18.3814 95.0128 20.1541C93.9368 21.3309 93.2475 23.0097 92.928 25.1738C92.3676 29.2119 93.298 31.3927 95.7862 31.7775C98.0279 32.1233 99.6195 30.3832 100.628 26.5012C100.914 24.0472 100.679 22.1229 99.9166 20.7453C101.18 19.2883 102.062 17.5427 102.483 15.6642C102.96 11.3249 101.923 8.89874 99.3673 8.45812C96.8117 8.0175 95.2201 10.07 94.3235 14.5208M104.82 19.3342C104.368 20.1188 103.92 20.907 103.475 21.699C103.604 22.5524 103.727 23.4057 103.851 24.2591C104.273 23.5154 104.695 22.7718 105.117 22.0281C105.022 21.1301 104.927 20.2377 104.82 19.3398" fill="white"/>
<path d="M11.605 40.7349C10.5962 40.7349 9.12235 40.2608 7.84458 37.896L7.73807 37.6896L7.50273 36.7192L8.06315 35.1909L9.453 34.8451L9.5931 34.8953L4.19061 11.9329L3.8768 12.2396L2.63822 12.5297L1.31002 11.5146L1.05225 10.4716V10.254C1.18675 6.85737 3.06975 5.93709 4.17939 5.69168C5.09426 5.46148 6.04183 5.38792 6.98151 5.47415C7.41801 5.20371 7.9004 5.0147 8.405 4.91641C9.11553 4.78635 9.84792 4.84405 10.529 5.08373C11.3683 4.58296 12.2906 4.23541 13.2527 4.05748C15.9819 3.56109 18.1115 3.96266 19.5854 5.25106C20.5819 6.10548 21.4551 7.09271 22.1802 8.18481C23.5532 9.9194 24.3603 10.5497 24.7918 10.7672L25.4363 11.0907L25.9014 12.9982L25.341 13.6061C24.7227 14.3657 24.3479 15.2925 24.265 16.2666V16.4004C23.9768 17.7889 23.4333 19.1125 22.6622 20.3047C24.4909 21.4317 26.0071 22.9963 27.0727 24.8559C27.3395 25.233 27.6882 25.5456 28.0927 25.7706L28.7092 26.1498L28.9669 27.7952L28.5355 28.3529C28.1935 28.7274 27.9186 29.1576 27.7228 29.6246L27.6499 29.7975C27.1317 30.9664 26.7154 32.1774 26.4058 33.4173C26.1209 34.6893 25.469 35.8508 24.5303 36.7594C23.5915 37.6679 22.4066 38.2839 21.121 38.5318L20.0786 38.8442C19.2729 38.9992 18.4466 39.0162 17.6352 38.8944C17.1856 39.3434 16.6188 39.6584 15.9988 39.8035C15.5645 39.8982 15.1169 39.917 14.6761 39.8593C13.9533 40.2732 13.1619 40.5546 12.3392 40.6903C12.1003 40.7472 11.8561 40.779 11.6106 40.7851M8.24807 37.5892L8.30971 37.7119C9.38572 39.6919 10.7868 40.5732 12.2327 40.2106C13.0246 40.0816 13.7851 39.8054 14.4744 39.3963L14.5528 39.3461H14.6481C15.0577 39.4107 15.4757 39.3994 15.881 39.3127C16.4507 39.176 16.9673 38.8753 17.3662 38.4482L17.4559 38.3589H17.5791C18.3628 38.5025 19.1661 38.5025 19.9497 38.3589L20.9865 38.0522C22.1865 37.823 23.2928 37.2494 24.1692 36.402C25.0455 35.5547 25.6535 34.4706 25.9183 33.2834C26.2367 32.0209 26.6623 30.7876 27.1904 29.5967L27.2465 29.4573C27.4657 28.9395 27.7686 28.461 28.1431 28.0406L28.4345 27.6725L28.2496 26.4678L27.8293 26.2056C27.3537 25.9402 26.9454 25.5701 26.6356 25.1236C25.5653 23.2523 24.0191 21.6942 22.1522 20.6058L21.928 20.4664L22.0794 20.2545C22.8932 19.0762 23.4646 17.7493 23.7606 16.3502V16.2443C23.857 15.1751 24.2728 14.1592 24.9543 13.3272L25.3186 12.9145L24.9711 11.4755L24.5284 11.258C23.8447 10.9122 22.8808 9.9696 21.7263 8.53061C21.0256 7.46813 20.1786 6.50875 19.21 5.68052C17.8482 4.48694 15.8474 4.12441 13.2863 4.56503C12.3466 4.73823 11.4476 5.08437 10.6355 5.58571L10.5346 5.64148L10.4225 5.60802C9.7942 5.36877 9.11252 5.30324 8.44981 5.41838C7.97626 5.52105 7.52593 5.71015 7.12161 5.97613L7.04314 6.0319H6.94792C6.03152 5.93853 5.10576 6.0065 4.21305 6.23269C3.24351 6.45021 1.59586 7.2701 1.47817 10.3321V10.4437L1.67992 11.2636L1.95452 11.4867L2.67749 12.0444L3.55732 11.8381L3.77029 11.6261L4.11775 11.3026L4.40918 11.0405L4.52124 11.4197L10.232 35.6985L9.37453 35.3917L8.38818 35.6315L7.97347 36.7749L8.24807 37.5892ZM17.6408 32.5695L16.1052 25.1794L16.4359 25.118H16.8394L16.9011 25.1682C17.6464 25.726 18.2405 27.0534 18.5823 28.9999C18.743 30.662 18.5263 31.7515 17.9322 32.2683L17.6408 32.5695ZM16.7105 25.6646L17.9266 31.4986C18.182 30.7298 18.2492 29.9114 18.1227 29.1115C17.7977 27.4104 17.2989 26.1945 16.7105 25.6646ZM14.6873 18.3804L13.0789 10.6556L13.5161 10.427H13.6001C14.267 10.5385 15.018 11.6875 15.6681 13.5782C15.8385 14.4829 15.9193 15.402 15.9091 16.3223C15.8837 16.9622 15.7071 17.587 15.3935 18.1462L15.3374 18.2187L14.6873 18.3804ZM13.6562 10.9847L15.0572 17.6944C15.2478 17.2315 15.3669 16.7426 15.4103 16.2443C15.418 15.3765 15.3429 14.51 15.1861 13.6563C14.564 11.8548 13.97 11.1241 13.6506 10.9289" fill="white"/>
<path d="M30.9735 36.9087C29.578 36.9087 28.3955 35.9606 27.4484 34.0419C27.2803 33.6738 26.7647 32.5527 27.5044 31.6269C27.728 31.3529 28.0258 31.1485 28.3625 31.0378C28.6992 30.927 29.0607 30.9147 29.4043 31.0022H29.4435C29.4377 30.6101 29.4058 30.2188 29.3482 29.8309L26.4733 9.22775C26.4247 8.80153 26.3269 8.38231 26.1818 7.9784C25.905 8.2168 25.5662 8.3726 25.2043 8.42785C24.8424 8.4831 24.4722 8.43558 24.1363 8.29073C23.8172 8.14785 23.5439 7.92029 23.3462 7.63301C23.1485 7.34573 23.034 7.00982 23.0154 6.66211C22.8473 5.46853 23.3517 4.314 24.5174 3.23197L24.6463 3.12599C25.3676 2.60269 26.2137 2.27586 27.1009 2.17782C27.727 2.09959 28.3618 2.12788 28.9783 2.26149C29.8346 1.84712 30.8144 1.76172 31.7301 2.02165C32.3778 1.75795 33.0617 1.5925 33.7588 1.53083C35.5073 1.36351 36.914 1.87664 37.8499 3.01444C38.3853 2.34187 39.0247 1.75826 39.7441 1.28543L40.0804 1.08464L41.3637 0.867118L42.0867 0.816919C42.5958 0.788686 43.1064 0.839493 43.5999 0.967513C43.9263 0.841217 44.2641 0.745974 44.6086 0.683061H44.7991C45.2967 0.659677 45.7941 0.735531 46.2619 0.90616C46.8996 0.724635 47.5522 0.599586 48.2121 0.532471H48.341H48.5203C51.2552 0.75557 52.3592 1.94915 52.7851 3.08138C53.0429 2.17782 53.8052 1.03444 55.9852 0.744413H56.1813C56.8563 0.742799 57.5134 0.960138 58.0531 1.36351C58.6554 0.950194 59.3729 0.735587 60.1043 0.749992C61.9873 0.749992 63.2483 1.93799 63.5733 3.96261L63.6798 4.64306L62.671 5.90357L61.5502 5.8478L61.3484 5.80318C61.1781 6.12822 61.0699 6.48185 61.029 6.84617L60.973 7.40391L61.1243 28.1688C61.1202 28.4172 61.1504 28.6649 61.2139 28.9051L61.3484 28.7601H62.1835C62.4134 28.755 62.642 28.7969 62.8551 28.8832C63.0681 28.9696 63.2611 29.0985 63.4221 29.262C63.6105 29.4548 63.7575 29.6838 63.8539 29.9351C63.9502 30.1864 63.994 30.4546 63.9825 30.7233C63.9825 31.995 63.2651 33.1216 61.8641 34.0698L61.567 34.2483L60.0931 34.555H59.4374C58.9993 34.5624 58.5633 34.4944 58.1484 34.3543C57.8744 34.4572 57.591 34.5338 57.3022 34.5829H57.0948C56.6485 34.598 56.2044 34.5141 55.7946 34.3375C55.2767 34.4947 54.7461 34.6067 54.2086 34.6722H54.0461H53.822C51.5186 34.4379 50.493 33.3894 50.0503 32.3464C49.8429 33.7519 48.8342 34.7168 47.1921 35.0626L46.94 35.0961C46.3534 35.1486 45.7651 35.0159 45.2587 34.7168C44.7902 35.0917 44.2209 35.3206 43.6222 35.3749H43.3813C42.8663 35.3685 42.3591 35.2481 41.8968 35.0223C41.4344 34.7966 41.0283 34.4712 40.7081 34.0698C40.4485 34.5876 40.0627 35.0325 39.586 35.3638C39.1092 35.695 38.5567 35.9021 37.9788 35.9662C37.4346 36.0305 36.883 35.9556 36.376 35.7486C35.9759 36.058 35.5034 36.2614 35.0029 36.3398C34.4433 36.3938 33.8787 36.3155 33.3553 36.1112C32.7647 36.4948 32.0973 36.746 31.3994 36.8474C31.2583 36.8684 31.1161 36.8815 30.9735 36.8864M28.9223 31.4261C28.7259 31.4226 28.5313 31.464 28.3535 31.5472C28.1757 31.6303 28.0194 31.753 27.8968 31.9058C27.3363 32.6029 27.7455 33.4786 27.8968 33.8132C28.8327 35.704 29.9759 36.5685 31.3266 36.3622C31.9941 36.2612 32.6301 36.0114 33.1871 35.6315L33.2937 35.559L33.4169 35.6036C33.8941 35.8123 34.4167 35.8968 34.9357 35.849C35.398 35.7827 35.8327 35.5896 36.191 35.2913L36.3087 35.202L36.4432 35.2634C36.9036 35.4748 37.4136 35.5559 37.9172 35.4976C38.4852 35.4304 39.0232 35.2069 39.4706 34.8522C39.9181 34.4975 40.2573 34.0257 40.4503 33.4898L40.652 33.0157L40.8986 33.4674C41.1516 33.907 41.5174 34.2719 41.9585 34.5247C42.3996 34.7775 42.9002 34.9093 43.4093 34.9064H43.5718C44.13 34.8557 44.6569 34.6268 45.0738 34.2539L45.2139 34.1256L45.3764 34.2316C45.8152 34.5294 46.3432 34.6691 46.8727 34.6276H47.0913C48.7726 34.2762 49.6636 33.2109 49.5739 31.6269L49.4563 30.5672L48.8958 30.6006L48.8118 30.5058L47.9319 30.5672H47.803L47.7469 30.517C47.245 29.932 46.9776 29.1833 46.996 28.4143L46.2058 17.1143L46.7662 18.0067C49.0079 21.7715 51.1936 25.6032 53.2335 29.4015L53.2616 29.4628L53.3232 29.7361L53.0542 29.803H52.8748H52.6619H52.5946L51.0647 29.0557L50.1904 30.2939L50.224 30.9632C50.2745 32.0508 50.7845 33.9192 53.8612 34.226H54.0237H54.1246C54.6643 34.1606 55.1971 34.0467 55.7162 33.8858L55.8114 33.8523L55.9011 33.8913C56.2595 34.0611 56.6534 34.1433 57.05 34.1312H57.2237C57.5037 34.0805 57.7777 34.002 58.0419 33.8969L58.126 33.8634L58.2157 33.8969C58.597 34.0315 58.9993 34.0976 59.4038 34.0921H60.0258L61.4045 33.8021L61.5726 33.685C62.828 32.8372 63.4725 31.85 63.4781 30.7456C63.4918 30.5421 63.463 30.3378 63.3936 30.1459C63.3241 29.9539 63.2156 29.7783 63.0746 29.6301C62.9592 29.5149 62.822 29.4236 62.671 29.3614C62.52 29.2991 62.3581 29.2673 62.1947 29.2676H61.5782L61.0738 29.8254L60.9113 29.5074C60.7175 29.0979 60.6216 28.6493 60.6311 28.1967L60.4854 7.41507L60.5415 6.80155C60.7096 5.80876 60.9674 5.47411 61.1019 5.36256L61.1971 5.28448L61.623 5.38487L62.4413 5.42391L63.1586 4.52594L63.0857 4.06301C62.7999 2.30053 61.7127 1.27427 60.0987 1.27427C59.4147 1.25306 58.7453 1.47446 58.2101 1.89895L58.0531 2.02165L57.8962 1.89895C57.4259 1.50172 56.8317 1.279 56.2149 1.2687H56.1309H56.0748C53.3288 1.63681 53.1663 3.49969 53.1831 4.05743V4.20802L53.5866 5.69163L54.7578 5.30679L55.1221 5.41276C55.5929 5.78645 55.8395 6.50036 55.8563 7.54335L56.0244 16.8856L55.5425 16.0267C53.6426 12.6467 51.6531 9.26121 49.63 5.95377L49.5683 5.85338L49.6076 5.74183C49.6343 5.66748 49.6785 5.60056 49.7365 5.54662L49.8485 5.44622L51.7484 6.13225L52.2247 5.47969C52.4321 5.14349 52.5462 4.75858 52.5554 4.36419C52.5106 3.2487 51.9278 1.33562 48.5036 1.05675H48.3746H48.2962C47.6404 1.11706 46.9925 1.24415 46.3627 1.43602H46.273L46.189 1.40256C45.7676 1.23374 45.3145 1.15763 44.8608 1.17946H44.7039C44.3694 1.23863 44.0424 1.33402 43.7287 1.46391L43.6503 1.49737H43.5662C43.1042 1.36455 42.6227 1.31172 42.1427 1.3412L41.4422 1.38582L40.2429 1.59777L40.0523 1.72605C39.2837 2.21969 38.6178 2.85594 38.0908 3.60008L37.8891 3.90684L37.6817 3.60565C36.8579 2.42881 35.5297 1.89337 33.8316 2.05512C33.1558 2.11064 32.4934 2.2745 31.8702 2.54036L31.7861 2.5794L31.702 2.55151C30.8542 2.29 29.9374 2.36804 29.1465 2.76903L29.068 2.81365H28.9783C28.3906 2.67913 27.7838 2.64705 27.185 2.71884C26.3881 2.80822 25.6277 3.10017 24.9769 3.56661L24.8649 3.65585C23.8393 4.61518 23.3853 5.6247 23.531 6.65653C23.539 6.91805 23.619 7.17236 23.7623 7.3917C23.9056 7.61105 24.1067 7.78699 24.3436 7.90031C24.6035 8.00474 24.8875 8.03501 25.1637 7.98771C25.4399 7.94042 25.6974 7.81745 25.9072 7.63259L26.1034 7.47084L26.3163 7.23101L26.4957 7.49315C26.7801 8.02271 26.9482 8.60636 26.9889 9.20544L29.8639 29.8086C29.947 30.3229 29.977 30.8443 29.9535 31.3647V31.6436L29.3482 31.5209C29.2231 31.4939 29.0951 31.4827 28.9671 31.4874M49.0976 30.0094L49.1817 30.1042L49.7925 30.0708L50.9133 28.4477L52.5946 29.2788C50.7845 25.9323 48.851 22.5077 46.8559 19.1389L47.5004 28.3696C47.4917 28.9795 47.6759 29.5766 48.0272 30.0763L49.0976 30.0094ZM50.3417 6.15456C52.107 9.04369 53.8388 11.9942 55.5089 14.9447L55.3799 7.56566C55.4379 6.95 55.2575 6.33553 54.8756 5.8478H54.8027L53.2616 6.3442L52.9421 5.15619C52.8756 5.38444 52.7735 5.60088 52.6395 5.7976L51.9445 6.75135L50.3417 6.15456ZM40.7473 31.7328L40.5175 31.4484C40.3581 31.2577 40.1485 31.1148 39.9122 31.0357C39.6217 30.9564 39.3133 30.972 39.0324 31.0803L38.9259 31.1193L38.5784 30.9241C38.018 30.6731 37.8106 29.5409 37.7378 28.8939L35.328 7.57124C35.328 7.13062 35.3728 6.13225 35.9949 6.45574C36.2092 6.65093 36.4764 6.77928 36.7633 6.82488C37.0501 6.87049 37.3441 6.83135 37.6089 6.71231C37.6937 6.67035 37.7728 6.61788 37.8443 6.55614L38.0012 6.42228L38.1581 6.55056C38.4026 6.74289 38.7101 6.83827 39.0212 6.81828H39.2902L40.3718 6.31073L40.4951 6.46132C40.8115 6.96248 40.9786 7.54268 40.977 8.13456L42.6583 29.1003C42.6855 29.7506 42.5528 30.3978 42.2717 30.9855L42.2043 31.0859L41.0835 31.1974L40.7473 31.7328ZM39.5312 30.4947C39.7072 30.4922 39.8827 30.5147 40.0523 30.5616C40.2713 30.6326 40.4748 30.7442 40.652 30.8907L40.7585 30.6954L41.913 30.5839C42.0848 30.0964 42.172 29.5834 42.1707 29.0668L40.4895 8.13456C40.4728 7.71122 40.3817 7.29405 40.2205 6.90194L39.3799 7.27563H39.0716C38.6994 7.30417 38.3278 7.21222 38.0124 7.01349L37.8387 7.11946C37.5274 7.27048 37.1805 7.33368 36.8356 7.30222C36.4908 7.27075 36.1613 7.14581 35.8828 6.94099C35.8479 7.12494 35.8292 7.31155 35.8268 7.49873L38.2366 28.7935C38.3486 29.7975 38.612 30.3496 38.797 30.4389L38.9764 30.5393C39.157 30.4791 39.3463 30.4489 39.5368 30.45" fill="white"/>
<path d="M96.509 37.3941H96.3129C95.4223 37.3979 94.5363 37.2681 93.6845 37.0092C90.5293 36.3566 88.3213 33.8133 86.9594 29.2398C86.5823 27.9732 86.2866 26.6841 86.0739 25.3802V25.2129C86.0416 24.2368 85.9574 23.2631 85.8218 22.2958H85.6929C85.5808 22.2958 85.4238 22.2512 85.2221 22.2066H85.1212C85.0824 22.1988 85.0424 22.1988 85.0036 22.2066C85.0036 22.2066 84.6729 22.491 84.544 23.7962L83.9836 29.1394C83.7986 30.9744 84.062 32.1791 84.7177 32.5417L86.7465 33.6571L84.9475 35.1129C84.4635 35.4997 83.9071 35.7867 83.3105 35.9571C82.714 36.1276 82.0893 36.1781 81.4729 36.1057C80.8733 36.0449 80.2963 35.8459 79.7876 35.5244C79.2788 35.203 78.8523 34.768 78.5419 34.2539C77.0902 34.9303 75.4894 35.2278 73.8903 35.1184C71.3149 34.9557 68.9037 33.8039 67.1652 31.9058C65.1365 29.8422 63.685 27.0423 62.8332 23.5898C62.6202 22.5134 62.4297 21.5094 62.2335 20.5055C62.0621 19.7786 61.752 19.0913 61.32 18.4808L60.6812 17.5606L61.3424 16.6626C61.7968 16.0465 62.1193 15.3441 62.2896 14.5989L63.0013 11.6206C64.0493 8.02309 65.7754 5.25666 68.1516 3.39936C70.3956 1.58341 73.2622 0.709118 76.1432 0.962008C78.0944 1.05291 79.9779 1.70162 81.5682 2.83046C81.9096 2.48263 82.3248 2.21501 82.7833 2.04712C83.2419 1.87923 83.7324 1.8153 84.219 1.85998C84.4812 1.88385 84.7359 1.9605 84.9675 2.08527C85.1991 2.21004 85.4029 2.38033 85.5664 2.58582C85.7299 2.79132 85.8498 3.02772 85.9187 3.2807C85.9876 3.53368 86.0042 3.79796 85.9675 4.05751C85.8996 4.53824 85.7657 5.00742 85.5695 5.45187C85.4591 5.70109 85.3819 5.96359 85.3398 6.23272C85.3319 6.80923 85.3694 7.38547 85.4519 7.95616C85.5585 8.81265 85.5848 9.67718 85.5303 10.5385C85.4567 11.5579 85.1251 12.5422 84.5664 13.3998C84.2478 13.9381 83.7805 14.3741 83.2202 14.6558C82.6599 14.9376 82.0301 15.0534 81.4056 14.9894L79.7579 14.8332L80.0046 13.2046C80.1391 12.3066 80.2455 11.4644 80.3127 10.7003C80.3621 10.1526 80.2801 9.60107 80.0736 9.09105C79.867 8.58104 79.5418 8.12709 79.1247 7.76652C78.3853 6.99427 77.3898 6.51476 76.3225 6.41677C75.9872 6.36454 75.6447 6.38115 75.3161 6.46555C74.9874 6.54996 74.6796 6.70039 74.4115 6.90759C73.6998 7.53227 73.2907 8.86529 73.201 10.756L72.7359 20.9796L73.4476 19.2115C73.7323 18.3499 74.3058 17.6117 75.0718 17.1203C75.8379 16.6289 76.7503 16.4142 77.6563 16.512C78.3846 16.5539 79.0911 16.7742 79.7131 17.1534C80.1427 16.9656 80.6136 16.8907 81.0806 16.9359C81.4598 16.9678 81.8281 17.078 82.1622 17.2594C82.6732 17.0604 83.226 16.9914 83.7706 17.0586C84.3109 17.1128 84.8349 17.274 85.3118 17.5327C85.4575 17.4156 86.3093 16.5845 88.2036 11.1465L88.2428 11.0405C89.924 7.18647 91.8071 4.90528 93.9871 3.99058C96.0154 3.15867 98.2575 2.99259 100.387 3.51649C103.565 3.96269 107.718 6.02635 109.287 13.305C109.582 15.1692 109.689 17.0583 109.606 18.9438C109.78 19.9979 109.942 21.1078 110.094 22.2233L110.206 23.0209L109.612 23.5787C109.404 23.7739 108.822 24.4543 108.009 26.5068C107.259 28.3812 106.32 30.1752 105.207 31.8612C103.999 33.6805 102.436 35.2396 100.611 36.4459L100.404 36.5686L100.241 36.6244C99.0483 37.0727 97.7935 37.3379 96.5202 37.4108M85.0484 21.6935H85.1885L85.3342 21.7269C85.4706 21.7617 85.6091 21.7877 85.7489 21.805L86.2533 21.8608V22.0449C86.4073 23.0873 86.5028 24.1375 86.5391 25.1905V25.33C86.7474 26.6076 87.0375 27.8707 87.4077 29.1115C88.7135 33.4954 90.7703 35.9272 93.7798 36.5463C94.5909 36.7876 95.4327 36.9115 96.2793 36.9144H96.4754C97.6951 36.8453 98.897 36.5914 100.04 36.1614L100.18 36.1168L100.297 36.0332C102.071 34.862 103.587 33.3439 104.753 31.5712C105.865 29.9137 106.804 28.1477 107.555 26.3005C108.334 24.3372 108.922 23.5117 109.281 23.1938L109.685 22.8201L109.612 22.2624C109.46 21.1469 109.298 20.0314 109.124 18.9438C109.203 17.0787 109.096 15.2104 108.805 13.3663C107.297 6.37773 103.346 4.39773 100.297 3.96826C98.2631 3.46706 96.121 3.62533 94.1832 4.42004C92.1265 5.26224 90.3332 7.48207 88.708 11.2022L88.6743 11.2859C86.8305 16.5622 85.9226 17.6665 85.6144 17.8952L85.3454 18.096L85.2053 18.0123C84.7507 17.7451 84.2447 17.576 83.7202 17.5159C83.2205 17.454 82.7133 17.5272 82.2519 17.7279L82.1341 17.7837L82.0221 17.7167C81.7213 17.5388 81.3842 17.4301 81.0357 17.3988C80.6113 17.3586 80.1841 17.4378 79.8028 17.6275L79.6739 17.6888L79.5562 17.6108C78.9763 17.2348 78.308 17.0157 77.6171 16.9749C76.8159 16.8883 76.0091 17.0789 75.3324 17.5147C74.6557 17.9504 74.1505 18.6048 73.9015 19.3677L73.3411 20.7397L74.8206 20.829C74.9159 20.829 75.056 20.829 75.2353 20.829H75.3979C75.5025 20.8277 75.6061 20.8478 75.7025 20.8881C75.7989 20.9284 75.886 20.988 75.9583 21.0632C76.1208 21.2473 76.373 21.7492 76.2777 23.0488L76.0368 26.2391C75.751 30.082 74.3554 30.0262 73.8735 30.0039C73.6128 30.0277 73.3506 29.9806 73.1147 29.8676C72.8788 29.7546 72.6781 29.5801 72.5341 29.3625C72.2875 28.9275 71.8896 27.8064 72.0129 25.1236L72.663 10.717C72.7527 8.69239 73.2234 7.24224 74.0416 6.52275C74.3591 6.27004 74.7254 6.08514 75.1179 5.97958C75.5103 5.87403 75.9204 5.85008 76.3225 5.90923C77.5104 6.01311 78.6207 6.53988 79.4497 7.39283C79.9205 7.8072 80.2866 8.32611 80.5183 8.90751C80.7501 9.48891 80.8409 10.1165 80.7836 10.7393C80.7163 11.509 80.6098 12.3624 80.4697 13.2771L80.3016 14.3926L81.4224 14.5041C81.9575 14.5575 82.4967 14.4565 82.9757 14.2132C83.4546 13.9699 83.8532 13.5946 84.1237 13.1321C84.6352 12.3374 84.9413 11.4292 85.0147 10.4883C85.0609 9.66016 85.0328 8.82955 84.9307 8.00636C84.8461 7.40407 84.8086 6.79616 84.8186 6.1881C84.8662 5.87556 84.9527 5.57016 85.0764 5.27897C85.255 4.87496 85.3794 4.44926 85.4462 4.01289C85.4769 3.81684 85.4671 3.61662 85.4172 3.42452C85.3673 3.23242 85.2785 3.0525 85.1562 2.8958C85.0339 2.7391 84.8807 2.60894 84.706 2.5133C84.5314 2.41766 84.3389 2.35856 84.1405 2.33964C83.6903 2.30586 83.2384 2.37642 82.8203 2.54578C82.4022 2.71514 82.0292 2.97868 81.7306 3.3157L81.5793 3.47745L81.4 3.33801C79.8591 2.18424 78.0026 1.52299 76.076 1.44167C73.3301 1.20236 70.598 2.03208 68.4542 3.75632C66.1677 5.55227 64.492 8.2183 63.4777 11.721L62.7715 14.6826C62.5825 15.4868 62.2338 16.2454 61.746 16.9136L61.2864 17.5327L61.7291 18.1574C62.1986 18.8319 62.5352 19.5889 62.7211 20.3883C62.9116 21.3979 63.1078 22.4074 63.3207 23.4671C64.1445 26.8136 65.5624 29.5466 67.5183 31.5489C69.1644 33.3483 71.4453 34.4453 73.8847 34.6109C75.4725 34.7228 77.0614 34.4089 78.4858 33.7018L78.6876 33.6014L78.8109 33.791C79.0771 34.2843 79.4593 34.7062 79.9247 35.0209C80.3902 35.3355 80.9252 35.5336 81.4841 35.5981C82.0383 35.6622 82.5998 35.6169 83.1364 35.4647C83.673 35.3125 84.1742 35.0565 84.6112 34.7113L85.8386 33.7185L84.4543 32.9544C83.5856 32.4747 83.255 31.1696 83.4624 29.0502L83.9948 23.7069C84.1293 22.3349 84.488 21.911 84.6393 21.7883C84.7401 21.7104 84.8647 21.669 84.9923 21.6712M72.663 21.2027L72.4836 25.1459C72.366 27.8008 72.7639 28.8047 72.9432 29.1171C73.0105 29.2286 73.1561 29.474 73.8679 29.5131C74.2153 29.5131 75.2689 29.5689 75.5491 26.2001L75.7902 23.0153C75.8854 21.7381 75.6052 21.4034 75.594 21.3867C75.5175 21.3423 75.4304 21.3191 75.3418 21.3198H75.2689C75.0448 21.3198 74.8879 21.3198 74.7758 21.3198L72.663 21.2027ZM96.3185 31.2086C96.1794 31.2075 96.0406 31.1945 95.9038 31.1696C94.7493 30.9911 93.2922 30.2437 93.9367 25.7762C94.2281 23.8129 94.839 22.307 95.7525 21.3142L96.2232 20.8011L95.943 20.1652C95.2841 18.5781 95.0898 16.8379 95.3826 15.1455C96.1223 11.3919 97.3945 9.64055 99.1598 9.94732C99.8603 10.07 101.962 10.4381 101.402 15.8929C101.027 17.5847 100.244 19.1603 99.1206 20.4832L98.5994 21.0409L98.9693 21.7102C99.6082 22.8647 99.81 24.5547 99.569 26.7299C98.5266 30.6732 97.1423 31.1919 96.3633 31.1919M98.79 10.3991C97.4954 10.3991 96.5483 12.0333 95.8926 15.218C95.6264 16.8156 95.8208 18.4556 96.453 19.9477L96.8621 20.8792L96.1728 21.6265C95.3265 22.5524 94.7549 23.9635 94.4915 25.832C93.8358 30.3274 95.4386 30.5784 96.0383 30.6676C96.5146 30.7457 97.9493 30.9632 99.1038 26.6295C99.3223 24.5826 99.1374 22.9874 98.5434 21.9221L97.9829 20.9461L98.7451 20.1206C99.8097 18.8726 100.557 17.3882 100.925 15.7925C101.446 10.8341 99.6642 10.5218 99.0814 10.4214C98.9807 10.4131 98.8795 10.4131 98.7788 10.4214" fill="white"/>
</g>
<defs>
<clipPath id="clip0_1210_4472">
<rect width="110" height="41" fill="white" transform="translate(0.665527 0.119751)"/>
</clipPath>
</defs>
</svg>
