<svg width="25" height="20" viewBox="0 0 25 20" fill="none" xmlns="http://www.w3.org/2000/svg">
<path d="M1.91016 0.515625V19H0.348633V0.515625H1.91016ZM10.5176 9.02148V10.3672H1.38965V9.02148H10.5176ZM11.7998 0.515625V1.86133H1.38965V0.515625H11.7998ZM19.6455 19.2539C18.7484 19.2539 17.9232 19.0889 17.1699 18.7588C16.4251 18.4287 15.7734 17.9632 15.2148 17.3623C14.6647 16.7614 14.2373 16.0505 13.9326 15.2295C13.6364 14.4001 13.4883 13.4945 13.4883 12.5127V11.9668C13.4883 10.9089 13.6449 9.95247 13.958 9.09766C14.2712 8.24284 14.7028 7.51074 15.2529 6.90137C15.8031 6.29199 16.4294 5.8265 17.1318 5.50488C17.8428 5.1748 18.5876 5.00977 19.3662 5.00977C20.238 5.00977 21.0124 5.16634 21.6895 5.47949C22.3665 5.78418 22.9336 6.22005 23.3906 6.78711C23.8561 7.3457 24.2074 8.01009 24.4443 8.78027C24.6813 9.54199 24.7998 10.3841 24.7998 11.3066V12.2334H14.4023V10.9385H23.2891V10.7607C23.2721 9.99056 23.1156 9.27116 22.8193 8.60254C22.5316 7.92546 22.0999 7.37533 21.5244 6.95215C20.9489 6.52897 20.2295 6.31738 19.3662 6.31738C18.723 6.31738 18.1305 6.4528 17.5889 6.72363C17.0557 6.99447 16.5944 7.38379 16.2051 7.8916C15.8242 8.39095 15.528 8.98763 15.3164 9.68164C15.1133 10.3672 15.0117 11.1289 15.0117 11.9668V12.5127C15.0117 13.2744 15.1217 13.9854 15.3418 14.6455C15.5703 15.2972 15.8919 15.8727 16.3066 16.3721C16.7298 16.8714 17.2292 17.2607 17.8047 17.54C18.3802 17.8193 19.015 17.959 19.709 17.959C20.5215 17.959 21.2409 17.8109 21.8672 17.5146C22.4935 17.21 23.0563 16.7318 23.5557 16.0801L24.5078 16.8164C24.2116 17.2565 23.8392 17.6628 23.3906 18.0352C22.9505 18.4076 22.4215 18.7038 21.8037 18.9238C21.1859 19.1439 20.4665 19.2539 19.6455 19.2539Z" fill="white"/>
</svg>
