<svg width="30" height="30" viewBox="0 0 30 30" fill="none" xmlns="http://www.w3.org/2000/svg">
<path d="M29.9916 16.5692C29.9916 16.3834 29.8916 16.212 29.7298 16.1206L29.7297 16.1205C29.7292 16.1202 29.7287 16.1199 29.7282 16.1196C29.6983 16.0999 29.6666 16.0828 29.6332 16.0687L22.7885 13.0099V3.80484C22.7885 3.80039 22.7885 3.796 22.7884 3.7916C22.7883 3.79014 22.7883 3.78873 22.7882 3.78727C22.7882 3.78434 22.7881 3.78135 22.7879 3.77842C22.7878 3.77666 22.7878 3.7749 22.7876 3.77314C22.7875 3.76939 22.7872 3.76559 22.7869 3.76184C22.7868 3.7592 22.7865 3.75662 22.7863 3.75404C22.7862 3.7527 22.7861 3.75129 22.7859 3.74994C22.775 3.63264 22.7295 3.52535 22.6597 3.4384C22.6587 3.43717 22.6577 3.43594 22.6567 3.43471C22.6553 3.43301 22.6539 3.43131 22.6525 3.42961C22.651 3.42785 22.6495 3.42609 22.648 3.42434C22.6469 3.42305 22.6459 3.42176 22.6447 3.42053C22.6421 3.41748 22.6394 3.41443 22.6367 3.41145C22.6361 3.41086 22.6356 3.41027 22.635 3.40969C22.6326 3.40699 22.63 3.4043 22.6275 3.40166C22.6269 3.40102 22.6263 3.40043 22.6257 3.39979C22.6229 3.39686 22.6201 3.39393 22.6172 3.39105C22.617 3.39088 22.6168 3.3907 22.6167 3.39053C22.6134 3.38731 22.6102 3.38408 22.6068 3.38092C22.6067 3.3808 22.6066 3.38074 22.6065 3.38063C22.6035 3.37775 22.6004 3.37488 22.5973 3.37207C22.5968 3.37154 22.5962 3.37102 22.5956 3.37049C22.5928 3.36797 22.5899 3.36539 22.587 3.36293C22.5866 3.36252 22.5861 3.36205 22.5856 3.36164C22.5823 3.35889 22.5791 3.35613 22.5758 3.35344C22.5749 3.35268 22.574 3.35191 22.5731 3.35121C22.5709 3.34945 22.5687 3.34764 22.5665 3.34588C22.565 3.34471 22.5635 3.34354 22.562 3.34236C22.5603 3.34107 22.5587 3.33979 22.557 3.3385C22.5179 3.30879 22.4751 3.28389 22.4292 3.26461L15.2387 0.0509766C15.0866 -0.0169922 14.9127 -0.0169922 14.7606 0.0509766L7.56986 3.26449C7.52403 3.28377 7.4812 3.30867 7.44218 3.33838C7.44048 3.33967 7.43878 3.34096 7.43714 3.34225C7.43562 3.34342 7.43415 3.34459 7.43269 3.34576C7.43046 3.34752 7.42829 3.34928 7.42607 3.35109C7.42513 3.35186 7.42419 3.35256 7.42331 3.35332C7.42003 3.35602 7.41681 3.35877 7.41359 3.36152C7.41312 3.36193 7.41265 3.36234 7.41212 3.36281C7.40925 3.36527 7.40638 3.36785 7.40357 3.37037C7.40298 3.3709 7.40239 3.37143 7.40181 3.37195C7.3987 3.37477 7.39566 3.37764 7.39261 3.38051C7.39249 3.38063 7.39243 3.38068 7.39232 3.3808C7.38898 3.38397 7.3857 3.38719 7.38247 3.39041C7.3823 3.39059 7.38212 3.39076 7.38195 3.39094C7.37907 3.39381 7.37626 3.39674 7.37345 3.39967C7.37286 3.40031 7.37222 3.4009 7.37163 3.40154C7.36911 3.40418 7.36659 3.40688 7.36413 3.40957C7.36361 3.41016 7.36302 3.41074 7.36249 3.41133C7.3598 3.41432 7.3571 3.41736 7.35441 3.42041C7.35329 3.42164 7.35224 3.42293 7.35112 3.42422C7.34966 3.42598 7.34814 3.42773 7.34667 3.42949C7.34527 3.43119 7.34386 3.43289 7.34245 3.43459C7.34146 3.43582 7.34046 3.43705 7.33952 3.43828C7.26968 3.52523 7.22415 3.63246 7.21325 3.74982C7.21314 3.75117 7.21302 3.75258 7.2129 3.75393C7.21267 3.75656 7.21243 3.75914 7.21226 3.76172C7.21197 3.76547 7.21173 3.76928 7.21155 3.77303C7.21144 3.77479 7.21138 3.77654 7.21132 3.7783C7.2112 3.78123 7.21109 3.78422 7.21097 3.78715C7.21091 3.78861 7.21091 3.79002 7.21085 3.79148C7.21073 3.79588 7.21068 3.80033 7.21068 3.80473V13.0097L0.366047 16.0686C0.365872 16.0687 0.365696 16.0688 0.36552 16.0689C0.149075 16.1596 0.00762939 16.3712 0.00762939 16.6059V16.6087V26.1935C0.00762939 26.4246 0.14345 26.6341 0.354504 26.7284C0.354504 26.7284 7.55837 29.9477 7.55878 29.9479L7.56218 29.9494C7.71054 30.0165 7.88058 30.0168 8.02917 29.9503L8.03568 29.9473L14.9997 26.8352L21.9636 29.9474C21.9637 29.9475 21.9727 29.9509 21.9873 29.9564C22.134 30.0122 22.2973 30.0091 22.4417 29.9474C22.4417 29.9474 22.4417 29.9474 22.4417 29.9474L29.6448 26.7284C29.8558 26.6341 29.9916 26.4246 29.9916 26.1935V16.6087V16.5692ZM22.2027 19.186L16.4357 16.6087L22.2027 14.0314L27.9697 16.6087L22.2027 19.186ZM14.9997 9.34928C15.3232 9.34928 15.5855 9.08695 15.5855 8.7634V7.40385L21.6168 4.70854V13.0097L15.5855 15.7051V14.0607C15.5855 13.7371 15.3232 13.4748 14.9997 13.4748C14.6761 13.4748 14.4138 13.7371 14.4138 14.0607V15.7051L8.38255 13.0097V4.70854L14.4138 7.40385V8.7634C14.4137 9.08701 14.6761 9.34928 14.9997 9.34928ZM14.9997 1.22766L20.7667 3.80496L14.9997 6.38215L9.23263 3.8049L14.9997 1.22766ZM7.79661 14.0314L13.5636 16.6087L7.79661 19.186L2.02964 16.6087L7.79661 14.0314ZM1.17945 17.5123L7.22655 20.2148C7.21618 20.2584 7.21068 20.3039 7.21068 20.3507V28.5089L1.17945 25.8135V17.5123ZM8.36661 20.2147L14.4137 17.5123V25.8136L8.38249 28.509V20.3507C8.38249 20.3039 8.37698 20.2584 8.36661 20.2147ZM15.5855 17.5123L21.6326 20.2148C21.6223 20.2584 21.6168 20.3039 21.6168 20.3507V28.5089L15.5855 25.8135V17.5123ZM22.7886 28.5089V20.3507C22.7886 20.3038 22.7831 20.2583 22.7727 20.2147L28.8198 17.5123V25.8135L22.7886 28.5089Z" fill="white"/>
</svg>
