<svg width="33" height="25" viewBox="0 0 33 25" fill="none" xmlns="http://www.w3.org/2000/svg">
<path d="M0.831055 0.515625H2.40527L9.23535 16.791L16.0781 0.515625H17.6396L9.83203 19H8.63867L0.831055 0.515625ZM0.348633 0.515625H1.73242L1.89746 10.9258V19H0.348633V0.515625ZM16.7637 0.515625H18.1475V19H16.5859V10.9258L16.7637 0.515625ZM31.5283 5.26367H32.9375V18.7588C32.9375 19.9521 32.709 20.9762 32.252 21.8311C31.8034 22.6859 31.1644 23.3418 30.335 23.7988C29.514 24.2559 28.5449 24.4844 27.4277 24.4844C26.8607 24.4844 26.2767 24.3955 25.6758 24.2178C25.0833 24.0485 24.5205 23.7861 23.9873 23.4307C23.4626 23.0837 23.014 22.652 22.6416 22.1357L23.4922 21.209C24.0508 21.8861 24.6475 22.3812 25.2822 22.6943C25.917 23.016 26.6025 23.1768 27.3389 23.1768C28.2106 23.1768 28.9469 23.0033 29.5479 22.6562C30.1572 22.3092 30.6185 21.8099 30.9316 21.1582C31.2533 20.5065 31.4141 19.7236 31.4141 18.8096V8.28516L31.5283 5.26367ZM21.8799 12.2715V12.0049C21.8799 10.9385 21.9984 9.97786 22.2354 9.12305C22.4808 8.25977 22.832 7.52344 23.2891 6.91406C23.7461 6.29622 24.3005 5.8265 24.9521 5.50488C25.6123 5.1748 26.3571 5.00977 27.1865 5.00977C27.9821 5.00977 28.6888 5.14095 29.3066 5.40332C29.9245 5.66569 30.4577 6.04232 30.9062 6.5332C31.3548 7.02409 31.7145 7.60807 31.9854 8.28516C32.2646 8.96224 32.4678 9.71549 32.5947 10.5449V13.9346C32.4932 14.7132 32.307 15.4284 32.0361 16.0801C31.7653 16.7233 31.4056 17.2861 30.957 17.7686C30.5085 18.2425 29.9668 18.6107 29.332 18.873C28.7057 19.127 27.9821 19.2539 27.1611 19.2539C26.3402 19.2539 25.6038 19.0846 24.9521 18.7461C24.3005 18.4076 23.7461 17.9294 23.2891 17.3115C22.832 16.6852 22.4808 15.9447 22.2354 15.0898C21.9984 14.235 21.8799 13.2956 21.8799 12.2715ZM23.4033 12.0049V12.2715C23.4033 13.0755 23.4837 13.8203 23.6445 14.5059C23.8053 15.1914 24.0508 15.7881 24.3809 16.2959C24.7109 16.8037 25.1299 17.2015 25.6377 17.4893C26.1455 17.777 26.7422 17.9209 27.4277 17.9209C28.2995 17.9209 29.0316 17.7559 29.624 17.4258C30.2165 17.0872 30.6862 16.6429 31.0332 16.0928C31.3802 15.5342 31.6341 14.9248 31.7949 14.2646V10.3164C31.7018 9.86784 31.5579 9.41081 31.3633 8.94531C31.1771 8.47982 30.9147 8.05241 30.5762 7.66309C30.2461 7.2653 29.8229 6.94792 29.3066 6.71094C28.7988 6.46549 28.181 6.34277 27.4531 6.34277C26.7591 6.34277 26.154 6.48665 25.6377 6.77441C25.1299 7.06217 24.7109 7.46419 24.3809 7.98047C24.0508 8.48828 23.8053 9.08496 23.6445 9.77051C23.4837 10.4561 23.4033 11.2008 23.4033 12.0049Z" fill="white"/>
</svg>
