<svg width="30" height="26" viewBox="0 0 30 26" fill="none" xmlns="http://www.w3.org/2000/svg">
<path d="M27.7653 2.92045C26.6598 1.81507 25.2653 1.08369 23.7325 0.805502C22.2356 0.533816 20.7093 0.709041 19.3186 1.31219C19.0216 1.44094 18.8853 1.78606 19.0141 2.083C19.1428 2.37995 19.488 2.5162 19.7849 2.38751C22.238 1.32362 25.0453 1.85808 26.9365 3.74934C28.1585 4.97134 28.8315 6.59607 28.8315 8.32417C28.8315 10.0523 28.1584 11.6771 26.9365 12.8991L22.6757 17.1599L13.5259 8.01011L15.922 5.61405C16.1508 5.3852 16.1508 5.01412 15.922 4.78521C15.6931 4.55637 15.322 4.55637 15.0931 4.78521L7.60752 12.2709C6.27323 13.6052 5.48905 15.3755 5.38234 17.2378C3.94503 16.4764 2.24628 16.2641 0.634742 16.6944C0.432091 16.7485 0.273861 16.9068 0.219712 17.1094C-0.379569 19.3538 0.267415 21.7672 1.90814 23.408C3.14432 24.6442 4.81904 25.3162 6.52962 25.3162C7.08946 25.3162 7.65323 25.2441 8.20668 25.0964C8.20844 25.0959 8.21002 25.0952 8.21172 25.0947C8.2269 25.0905 8.24184 25.0855 8.25667 25.0801C8.27149 25.0855 8.28644 25.0905 8.30162 25.0947C8.30332 25.0952 8.30496 25.0959 8.30666 25.0964C8.86023 25.2442 9.4237 25.3162 9.98372 25.3162C10.4741 25.3162 10.9615 25.2607 11.4365 25.1527C11.9654 25.2638 12.4967 25.3189 13.0236 25.3189C15.0266 25.3189 16.9611 24.532 18.4148 23.0783L27.7653 13.7279C30.7449 10.7482 30.7449 5.90009 27.7653 2.92045ZM6.52815 24.1443C5.12489 24.1443 3.75087 23.593 2.73703 22.5791C1.47283 21.315 0.927936 19.4913 1.27393 17.7485C3.01674 17.4027 4.84037 17.9475 6.10457 19.2117C7.19149 20.2986 7.74605 21.7992 7.66049 23.3063L5.48032 21.1261C5.25148 20.8973 4.8804 20.8973 4.65149 21.1261C4.42264 21.355 4.42264 21.7261 4.65149 21.955L6.83149 24.135C6.73028 24.1406 6.62913 24.1443 6.52815 24.1443ZM9.68179 24.1351L11.862 21.9549C12.0909 21.726 12.0909 21.355 11.862 21.1261C11.6332 20.8972 11.2621 20.8972 11.0332 21.1261L8.85302 23.3062C8.76746 21.7991 9.32202 20.2985 10.4089 19.2116C11.6731 17.9475 13.4967 17.4025 15.2396 17.7485C15.5855 19.4912 15.0406 21.3149 13.7765 22.5791C12.6895 23.6662 11.189 24.2209 9.68179 24.1351ZM17.5861 22.2495C16.5417 23.2939 15.2041 23.9311 13.7865 24.1003C14.0757 23.8941 14.35 23.6633 14.6053 23.408C16.246 21.7672 16.893 19.3537 16.2937 17.1094C16.2396 16.9068 16.0813 16.7486 15.8787 16.6944C13.6343 16.0951 11.2209 16.742 9.58011 18.3828C9.01957 18.9434 8.57518 19.5943 8.25667 20.2976C7.93816 19.5942 7.49382 18.9434 6.93322 18.3828C6.81039 18.26 6.68275 18.1434 6.5516 18.0319C6.45074 16.1946 7.13406 14.4018 8.43623 13.0997L12.6971 8.83888L21.8468 17.9887L17.5861 22.2495Z" fill="white"/>
</svg>
